<svg width="512" height="512" viewBox="0 0 512 512" fill="none" xmlns="http://www.w3.org/2000/svg">
<g filter="url(#filter0_i_3413_71)">
<path d="M445.432 351.098H394.625C390.322 342.572 383.27 335.747 374.609 331.724C365.948 327.702 356.184 326.717 346.894 328.928C337.604 331.14 329.331 336.419 323.412 343.913C317.493 351.407 314.273 360.677 314.273 370.227C314.273 379.776 317.493 389.047 323.412 396.541C329.331 404.034 337.604 409.314 346.894 411.525C356.184 413.737 365.948 412.752 374.609 408.729C383.27 404.706 390.322 397.881 394.625 389.356H445.432C450.407 389.208 455.128 387.127 458.595 383.556C462.061 379.985 464 375.204 464 370.227C464 365.25 462.061 360.469 458.595 356.897C455.128 353.326 450.407 351.246 445.432 351.098Z" fill="white"/>
</g>
<g filter="url(#filter1_i_3413_71)">
<path d="M445.432 237.324H202.314C198.011 228.799 190.959 221.974 182.298 217.951C173.637 213.928 163.873 212.943 154.583 215.155C145.293 217.366 137.02 222.646 131.101 230.139C125.182 237.633 121.962 246.904 121.962 256.453C121.962 266.003 125.182 275.273 131.101 282.767C137.02 290.261 145.293 295.54 154.583 297.752C163.873 299.964 173.637 298.978 182.298 294.956C190.959 290.933 198.011 284.108 202.314 275.583H445.432C450.407 275.434 455.128 273.354 458.595 269.783C462.061 266.211 464 261.43 464 256.453C464 251.476 462.061 246.695 458.595 243.124C455.128 239.553 450.407 237.472 445.432 237.324Z" fill="white"/>
</g>
<g filter="url(#filter2_i_3413_71)">
<path d="M445.432 123.551H319.908C315.605 115.026 308.553 108.2 299.892 104.177C291.231 100.155 281.467 99.1697 272.177 101.381C262.887 103.593 254.615 108.872 248.695 116.366C242.776 123.86 239.556 133.13 239.556 142.68C239.556 152.229 242.776 161.5 248.695 168.994C254.615 176.488 262.887 181.767 272.177 183.978C281.467 186.19 291.231 185.205 299.892 181.182C308.553 177.16 315.605 170.334 319.908 161.809H445.432C450.407 161.661 455.128 159.58 458.595 156.009C462.061 152.438 464 147.657 464 142.68C464 137.703 462.061 132.922 458.595 129.351C455.128 125.779 450.407 123.699 445.432 123.551Z" fill="white"/>
</g>
<path d="M314.287 370.235C314.284 363.586 315.849 357.029 318.855 351.098H67.6706C62.6031 350.956 57.6867 352.832 54.0004 356.312C50.3141 359.791 48.1592 364.592 48.0085 369.659C47.8578 374.726 49.7237 379.646 53.1967 383.339C56.6697 387.032 61.466 389.196 66.5328 389.356C66.9064 389.356 67.297 389.356 67.6706 389.356H318.855C315.851 383.43 314.286 376.879 314.287 370.235Z" fill="url(#paint0_linear_3413_71)"/>
<path d="M314.287 370.235C314.284 363.586 315.849 357.029 318.855 351.098H67.6706C62.6031 350.956 57.6867 352.832 54.0004 356.312C50.3141 359.791 48.1592 364.592 48.0085 369.659C47.8578 374.726 49.7237 379.646 53.1967 383.339C56.6697 387.032 61.466 389.196 66.5328 389.356C66.9064 389.356 67.297 389.356 67.6706 389.356H318.855C315.851 383.43 314.286 376.879 314.287 370.235Z" fill="url(#paint1_linear_3413_71)" fill-opacity="0.8" style="mix-blend-mode:soft-light"/>
<path d="M314.287 370.235C314.284 363.586 315.849 357.029 318.855 351.098H67.6706C62.6031 350.956 57.6867 352.832 54.0004 356.312C50.3141 359.791 48.1592 364.592 48.0085 369.659C47.8578 374.726 49.7237 379.646 53.1967 383.339C56.6697 387.032 61.466 389.196 66.5328 389.356C66.9064 389.356 67.297 389.356 67.6706 389.356H318.855C315.851 383.43 314.286 376.879 314.287 370.235Z" fill="url(#paint2_linear_3413_71)" fill-opacity="0.6" style="mix-blend-mode:soft-light"/>
<path d="M121.976 256.462C121.973 249.812 123.538 243.255 126.544 237.324H68.7064C57.5668 237.324 48.5329 245.815 48.5329 256.462C48.5329 267.109 57.5838 275.599 68.7064 275.599H126.544C123.538 269.668 121.973 263.111 121.976 256.462Z" fill="url(#paint3_linear_3413_71)"/>
<path d="M121.976 256.462C121.973 249.812 123.538 243.255 126.544 237.324H68.7064C57.5668 237.324 48.5329 245.815 48.5329 256.462C48.5329 267.109 57.5838 275.599 68.7064 275.599H126.544C123.538 269.668 121.973 263.111 121.976 256.462Z" fill="url(#paint4_linear_3413_71)" fill-opacity="0.8" style="mix-blend-mode:soft-light"/>
<path d="M121.976 256.462C121.973 249.812 123.538 243.255 126.544 237.324H68.7064C57.5668 237.324 48.5329 245.815 48.5329 256.462C48.5329 267.109 57.5838 275.599 68.7064 275.599H126.544C123.538 269.668 121.973 263.111 121.976 256.462Z" fill="url(#paint5_linear_3413_71)" fill-opacity="0.6" style="mix-blend-mode:soft-light"/>
<path d="M239.57 142.688C239.568 136.039 241.133 129.482 244.138 123.551H67.6706C62.6032 123.409 57.6867 125.285 54.0004 128.765C50.3141 132.245 48.1592 137.045 48.0085 142.112C47.8578 147.179 49.7237 152.099 53.1967 155.792C56.6697 159.485 61.466 161.649 66.5328 161.809H244.138C241.135 155.883 239.57 149.332 239.57 142.688Z" fill="url(#paint6_linear_3413_71)"/>
<path d="M239.57 142.688C239.568 136.039 241.133 129.482 244.138 123.551H67.6706C62.6032 123.409 57.6867 125.285 54.0004 128.765C50.3141 132.245 48.1592 137.045 48.0085 142.112C47.8578 147.179 49.7237 152.099 53.1967 155.792C56.6697 159.485 61.466 161.649 66.5328 161.809H244.138C241.135 155.883 239.57 149.332 239.57 142.688Z" fill="url(#paint7_linear_3413_71)" fill-opacity="0.8" style="mix-blend-mode:soft-light"/>
<path d="M239.57 142.688C239.568 136.039 241.133 129.482 244.138 123.551H67.6706C62.6032 123.409 57.6867 125.285 54.0004 128.765C50.3141 132.245 48.1592 137.045 48.0085 142.112C47.8578 147.179 49.7237 152.099 53.1967 155.792C56.6697 159.485 61.466 161.649 66.5328 161.809H244.138C241.135 155.883 239.57 149.332 239.57 142.688Z" fill="url(#paint8_linear_3413_71)" fill-opacity="0.6" style="mix-blend-mode:soft-light"/>
<g filter="url(#filter3_di_3413_71)">
<circle cx="356.639" cy="369.814" r="42.5069" fill="url(#paint9_linear_3413_71)"/>
</g>
<g filter="url(#filter4_di_3413_71)">
<circle cx="164.302" cy="256.462" r="42.5069" fill="url(#paint10_linear_3413_71)"/>
</g>
<g filter="url(#filter5_di_3413_71)">
<circle cx="281.875" cy="142.507" r="42.5069" fill="url(#paint11_linear_3413_71)"/>
</g>
<defs>
<filter id="filter0_i_3413_71" x="314.273" y="319.774" width="156.727" height="92.9055" filterUnits="userSpaceOnUse" color-interpolation-filters="sRGB">
<feFlood flood-opacity="0" result="BackgroundImageFix"/>
<feBlend mode="normal" in="SourceGraphic" in2="BackgroundImageFix" result="shape"/>
<feColorMatrix in="SourceAlpha" type="matrix" values="0 0 0 0 0 0 0 0 0 0 0 0 0 0 0 0 0 0 127 0" result="hardAlpha"/>
<feOffset dx="7" dy="-8"/>
<feGaussianBlur stdDeviation="6.5"/>
<feComposite in2="hardAlpha" operator="arithmetic" k2="-1" k3="1"/>
<feColorMatrix type="matrix" values="0 0 0 0 0.409375 0 0 0 0 0.488521 0 0 0 0 0.545833 0 0 0 0.25 0"/>
<feBlend mode="normal" in2="shape" result="effect1_innerShadow_3413_71"/>
</filter>
<filter id="filter1_i_3413_71" x="121.962" y="206" width="349.038" height="92.9055" filterUnits="userSpaceOnUse" color-interpolation-filters="sRGB">
<feFlood flood-opacity="0" result="BackgroundImageFix"/>
<feBlend mode="normal" in="SourceGraphic" in2="BackgroundImageFix" result="shape"/>
<feColorMatrix in="SourceAlpha" type="matrix" values="0 0 0 0 0 0 0 0 0 0 0 0 0 0 0 0 0 0 127 0" result="hardAlpha"/>
<feOffset dx="7" dy="-8"/>
<feGaussianBlur stdDeviation="6.5"/>
<feComposite in2="hardAlpha" operator="arithmetic" k2="-1" k3="1"/>
<feColorMatrix type="matrix" values="0 0 0 0 0.428479 0 0 0 0 0.545833 0 0 0 0 0.409375 0 0 0 0.25 0"/>
<feBlend mode="normal" in2="shape" result="effect1_innerShadow_3413_71"/>
</filter>
<filter id="filter2_i_3413_71" x="239.556" y="92.2271" width="231.443" height="92.9055" filterUnits="userSpaceOnUse" color-interpolation-filters="sRGB">
<feFlood flood-opacity="0" result="BackgroundImageFix"/>
<feBlend mode="normal" in="SourceGraphic" in2="BackgroundImageFix" result="shape"/>
<feColorMatrix in="SourceAlpha" type="matrix" values="0 0 0 0 0 0 0 0 0 0 0 0 0 0 0 0 0 0 127 0" result="hardAlpha"/>
<feOffset dx="7" dy="-8"/>
<feGaussianBlur stdDeviation="6.5"/>
<feComposite in2="hardAlpha" operator="arithmetic" k2="-1" k3="1"/>
<feColorMatrix type="matrix" values="0 0 0 0 0.545833 0 0 0 0 0.409375 0 0 0 0 0.409375 0 0 0 0.25 0"/>
<feBlend mode="normal" in2="shape" result="effect1_innerShadow_3413_71"/>
</filter>
<filter id="filter3_di_3413_71" x="305.132" y="314.307" width="107.014" height="111.014" filterUnits="userSpaceOnUse" color-interpolation-filters="sRGB">
<feFlood flood-opacity="0" result="BackgroundImageFix"/>
<feColorMatrix in="SourceAlpha" type="matrix" values="0 0 0 0 0 0 0 0 0 0 0 0 0 0 0 0 0 0 127 0" result="hardAlpha"/>
<feMorphology radius="1" operator="erode" in="SourceAlpha" result="effect1_dropShadow_3413_71"/>
<feOffset dy="4"/>
<feGaussianBlur stdDeviation="5"/>
<feColorMatrix type="matrix" values="0 0 0 0 0 0 0 0 0 0 0 0 0 0 0 0 0 0 0.25 0"/>
<feBlend mode="normal" in2="BackgroundImageFix" result="effect1_dropShadow_3413_71"/>
<feBlend mode="normal" in="SourceGraphic" in2="effect1_dropShadow_3413_71" result="shape"/>
<feColorMatrix in="SourceAlpha" type="matrix" values="0 0 0 0 0 0 0 0 0 0 0 0 0 0 0 0 0 0 127 0" result="hardAlpha"/>
<feMorphology radius="2" operator="dilate" in="SourceAlpha" result="effect2_innerShadow_3413_71"/>
<feOffset dx="14" dy="-18"/>
<feGaussianBlur stdDeviation="7.5"/>
<feComposite in2="hardAlpha" operator="arithmetic" k2="-1" k3="1"/>
<feColorMatrix type="matrix" values="0 0 0 0 0.702986 0 0 0 0 0.850871 0 0 0 0 0.883333 0 0 0 0.25 0"/>
<feBlend mode="normal" in2="shape" result="effect2_innerShadow_3413_71"/>
</filter>
<filter id="filter4_di_3413_71" x="112.795" y="200.955" width="107.014" height="111.014" filterUnits="userSpaceOnUse" color-interpolation-filters="sRGB">
<feFlood flood-opacity="0" result="BackgroundImageFix"/>
<feColorMatrix in="SourceAlpha" type="matrix" values="0 0 0 0 0 0 0 0 0 0 0 0 0 0 0 0 0 0 127 0" result="hardAlpha"/>
<feMorphology radius="1" operator="erode" in="SourceAlpha" result="effect1_dropShadow_3413_71"/>
<feOffset dy="4"/>
<feGaussianBlur stdDeviation="5"/>
<feColorMatrix type="matrix" values="0 0 0 0 0 0 0 0 0 0 0 0 0 0 0 0 0 0 0.25 0"/>
<feBlend mode="normal" in2="BackgroundImageFix" result="effect1_dropShadow_3413_71"/>
<feBlend mode="normal" in="SourceGraphic" in2="effect1_dropShadow_3413_71" result="shape"/>
<feColorMatrix in="SourceAlpha" type="matrix" values="0 0 0 0 0 0 0 0 0 0 0 0 0 0 0 0 0 0 127 0" result="hardAlpha"/>
<feMorphology radius="2" operator="dilate" in="SourceAlpha" result="effect2_innerShadow_3413_71"/>
<feOffset dx="14" dy="-18"/>
<feGaussianBlur stdDeviation="7.5"/>
<feComposite in2="hardAlpha" operator="arithmetic" k2="-1" k3="1"/>
<feColorMatrix type="matrix" values="0 0 0 0 0.702986 0 0 0 0 0.883333 0 0 0 0 0.753483 0 0 0 0.25 0"/>
<feBlend mode="normal" in2="shape" result="effect2_innerShadow_3413_71"/>
</filter>
<filter id="filter5_di_3413_71" x="230.368" y="87" width="107.014" height="111.014" filterUnits="userSpaceOnUse" color-interpolation-filters="sRGB">
<feFlood flood-opacity="0" result="BackgroundImageFix"/>
<feColorMatrix in="SourceAlpha" type="matrix" values="0 0 0 0 0 0 0 0 0 0 0 0 0 0 0 0 0 0 127 0" result="hardAlpha"/>
<feMorphology radius="1" operator="erode" in="SourceAlpha" result="effect1_dropShadow_3413_71"/>
<feOffset dy="4"/>
<feGaussianBlur stdDeviation="5"/>
<feColorMatrix type="matrix" values="0 0 0 0 0 0 0 0 0 0 0 0 0 0 0 0 0 0 0.25 0"/>
<feBlend mode="normal" in2="BackgroundImageFix" result="effect1_dropShadow_3413_71"/>
<feBlend mode="normal" in="SourceGraphic" in2="effect1_dropShadow_3413_71" result="shape"/>
<feColorMatrix in="SourceAlpha" type="matrix" values="0 0 0 0 0 0 0 0 0 0 0 0 0 0 0 0 0 0 127 0" result="hardAlpha"/>
<feMorphology radius="2" operator="dilate" in="SourceAlpha" result="effect2_innerShadow_3413_71"/>
<feOffset dx="14" dy="-18"/>
<feGaussianBlur stdDeviation="7.5"/>
<feComposite in2="hardAlpha" operator="arithmetic" k2="-1" k3="1"/>
<feColorMatrix type="matrix" values="0 0 0 0 0.8375 0 0 0 0 0.774687 0 0 0 0 0.774687 0 0 0 0.25 0"/>
<feBlend mode="normal" in2="shape" result="effect2_innerShadow_3413_71"/>
</filter>
<linearGradient id="paint0_linear_3413_71" x1="48" y1="370.223" x2="318.855" y2="370.223" gradientUnits="userSpaceOnUse">
<stop stop-color="#D052AA"/>
<stop offset="1" stop-color="#F97B5F"/>
</linearGradient>
<linearGradient id="paint1_linear_3413_71" x1="183.428" y1="351.09" x2="183.428" y2="389.356" gradientUnits="userSpaceOnUse">
<stop stop-color="#B7B7B7"/>
<stop offset="0.364583" stop-color="#A7A1A1" stop-opacity="0"/>
<stop offset="0.364683" stop-color="#474747" stop-opacity="0"/>
<stop offset="0.911458"/>
</linearGradient>
<linearGradient id="paint2_linear_3413_71" x1="66.6269" y1="382.777" x2="112.631" y2="350.377" gradientUnits="userSpaceOnUse">
<stop stop-color="#313131"/>
<stop offset="0.541667" stop-color="#8C8C8C" stop-opacity="0"/>
</linearGradient>
<linearGradient id="paint3_linear_3413_71" x1="41" y1="261" x2="127" y2="261" gradientUnits="userSpaceOnUse">
<stop stop-color="#6F77D9"/>
<stop offset="1" stop-color="#C64FB3"/>
</linearGradient>
<linearGradient id="paint4_linear_3413_71" x1="87.5385" y1="237.324" x2="87.5385" y2="275.599" gradientUnits="userSpaceOnUse">
<stop stop-color="#B7B7B7"/>
<stop offset="0.364583" stop-color="#A7A1A1" stop-opacity="0"/>
<stop offset="0.364683" stop-color="#474747" stop-opacity="0"/>
<stop offset="0.911458"/>
</linearGradient>
<linearGradient id="paint5_linear_3413_71" x1="53.8978" y1="269.019" x2="72.9371" y2="265.158" gradientUnits="userSpaceOnUse">
<stop stop-color="#313131"/>
<stop offset="0.541667" stop-color="#8C8C8C" stop-opacity="0"/>
</linearGradient>
<linearGradient id="paint6_linear_3413_71" x1="48" y1="142.676" x2="244.138" y2="142.676" gradientUnits="userSpaceOnUse">
<stop stop-color="#07C2F3"/>
<stop offset="1" stop-color="#9859CF"/>
</linearGradient>
<linearGradient id="paint7_linear_3413_71" x1="146.069" y1="123.543" x2="146.069" y2="161.809" gradientUnits="userSpaceOnUse">
<stop stop-color="#B7B7B7"/>
<stop offset="0.364583" stop-color="#A7A1A1" stop-opacity="0"/>
<stop offset="0.364683" stop-color="#474747" stop-opacity="0"/>
<stop offset="0.911458"/>
</linearGradient>
<linearGradient id="paint8_linear_3413_71" x1="61.4885" y1="155.23" x2="101.039" y2="135.059" gradientUnits="userSpaceOnUse">
<stop stop-color="#313131"/>
<stop offset="0.541667" stop-color="#8C8C8C" stop-opacity="0"/>
</linearGradient>
<linearGradient id="paint9_linear_3413_71" x1="378.947" y1="325.498" x2="345.484" y2="414.732" gradientUnits="userSpaceOnUse">
<stop offset="0.572917" stop-color="white"/>
<stop offset="1" stop-color="#DEDEDE"/>
</linearGradient>
<linearGradient id="paint10_linear_3413_71" x1="186.611" y1="212.146" x2="153.148" y2="301.38" gradientUnits="userSpaceOnUse">
<stop offset="0.572917" stop-color="white"/>
<stop offset="1" stop-color="#DEDEDE"/>
</linearGradient>
<linearGradient id="paint11_linear_3413_71" x1="304.183" y1="98.1912" x2="270.72" y2="187.426" gradientUnits="userSpaceOnUse">
<stop offset="0.572917" stop-color="white"/>
<stop offset="1" stop-color="#DEDEDE"/>
</linearGradient>
</defs>
</svg>
