<svg width="256" height="256" viewBox="0 0 256 256" xmlns="http://www.w3.org/2000/svg">
  <path
    fill="var(--app-icon-second-color)"
    fillRule="evenodd"
    clipRule="evenodd"
    d="M102.304 52.4915C95.7374 58.5165 91 67.7474 91 80.8757V118.376H73V80.8757C73 63.0041 79.6376 48.86 90.1339 39.2288C100.485 29.7304 114.085 25.0743 127.451 25.0009C140.818 24.9274 154.46 29.437 164.853 38.9354C175.392 48.5669 182 62.797 182 80.8757V118.376H164V80.8757C164 67.4545 159.233 58.1846 152.71 52.2223C146.04 46.1269 136.932 42.9491 127.549 43.0006C118.165 43.0522 109.015 46.3336 102.304 52.4915Z"
  />
  <path
    fill="var(--app-icon-main-color)"
    fillRule="evenodd"
    clipRule="evenodd"
    d="M55 113C46.7157 113 40 119.716 40 128V207C40 215.284 46.7157 222 55 222H201C209.284 222 216 215.284 216 207V128C216 119.716 209.284 113 201 113H55ZM125 159C119.477 159 115 163.477 115 169V183C115 188.523 119.477 193 125 193H130C135.523 193 140 188.523 140 183V169C140 163.477 135.523 159 130 159H125Z"
  />
</svg>