<svg width="256" height="256" viewBox="0 0 256 256" xmlns="http://www.w3.org/2000/svg">
  <path
    fill="var(--app-icon-main-color)"
    fillRule="evenodd"
    clipRule="evenodd"
    d="M58.5676 139.693C57.5001 145.811 57.0538 151.481 57.0538 156.693C57.0538 195.875 88.8175 227.639 128 227.639C167.182 227.639 198.946 195.875 198.946 156.693C198.946 151.376 198.539 145.723 197.545 139.693C193.368 114.346 178.827 82.337 140.599 40.675C138.949 38.8769 137.255 37.0607 135.516 35.2263C133.373 32.9658 131.161 30.6775 128.878 28.3612C126.822 30.3488 124.822 32.3203 122.876 34.2756C120.821 36.3406 118.826 38.3875 116.89 40.4162C78.2417 80.9173 63.0145 114.203 58.5676 139.693ZM128.613 52.7563C163.22 90.6099 176.148 118.713 180.268 139.693H75.8789C80.2761 118.525 93.7905 89.403 128.613 52.7563Z"
  />
</svg>