<svg width="256" height="256" viewBox="0 0 256 256" xmlns="http://www.w3.org/2000/svg">
  <path
    fill="var(--app-icon-main-color)"
    fillRule="evenodd"
    clipRule="evenodd"
    d="M125.845 111.843L132.917 118.914L137.086 123.084L144.157 130.155L116.24 158.071C116.143 158.162 115.999 158.297 115.81 158.472C115.395 158.858 114.765 159.437 113.946 160.178C112.307 161.662 109.921 163.784 106.99 166.279C101.087 171.304 93.1599 177.688 84.7911 183.416C76.1974 189.297 68.1388 193.787 61.8443 195.837C60.9283 196.136 60.1465 196.355 59.4845 196.516C59.6449 195.853 59.8644 195.072 60.1628 194.156C62.2132 187.861 66.7027 179.803 72.5841 171.209C78.3117 162.84 84.696 154.913 89.721 149.01C92.2164 146.079 94.3378 143.693 95.8215 142.054C96.5626 141.235 97.1424 140.605 97.5276 140.19C97.7028 140.001 97.8376 139.857 97.9288 139.76L125.845 111.843ZM113.825 99.8222L85.7255 127.921C85.7255 127.921 26.4978 190.407 46.0454 209.955C65.5931 229.502 128.079 170.274 128.079 170.274L156.178 142.175L172.661 158.659C176.176 162.174 181.875 162.174 185.389 158.659L190.364 153.684C193.879 150.169 193.879 144.471 190.364 140.956L173.831 124.423C174.323 123.997 174.803 123.551 175.27 123.084L212.039 86.314C222.583 75.7698 222.583 58.6743 212.039 48.1302L207.87 43.9607C197.326 33.4166 180.23 33.4166 169.686 43.9607L132.917 80.7303C132.449 81.1974 132.003 81.6774 131.577 82.169L115.044 65.6358C111.529 62.1211 105.831 62.121 102.316 65.6358L97.3411 70.6108C93.8264 74.1255 93.8264 79.824 97.3411 83.3387L113.825 99.8222ZM56.3032 196.88C56.3097 196.871 56.3971 196.877 56.5462 196.923C56.3714 196.912 56.2968 196.889 56.3032 196.88ZM59.0772 199.454C59.1233 199.603 59.1288 199.69 59.1201 199.697C59.1114 199.703 59.0883 199.629 59.0772 199.454Z"
  />
</svg>