<svg width="256" height="256" viewBox="0 0 256 256" xmlns="http://www.w3.org/2000/svg">
  <path
    fill="var(--app-icon-third-color)"
    fillRule="evenodd"
    clipRule="evenodd"
    d="M126.595 214.512C123.744 218.085 120.435 221.278 116.757 224H215C226.046 224 235 215.046 235 204V159C235 147.954 226.046 139 215 139H202.106L126.595 214.512Z"
  />
  <path
    fill="var(--app-icon-second-color)"
    fillRule="evenodd"
    clipRule="evenodd"
    d="M137.433 189.671L207.122 119.982C214.933 112.171 214.933 99.5079 207.122 91.6974L175.303 59.8776C167.492 52.0671 154.829 52.0672 147.018 59.8776L138.012 68.884V181.856C138.012 184.512 137.814 187.121 137.433 189.671Z"
  />
  <path
    fill="var(--app-icon-main-color)"
    fillRule="evenodd"
    clipRule="evenodd"
    d="M63 32C51.9543 32 43 40.9543 43 52V181.5C43 204.972 62.0279 224 85.5 224C108.972 224 128 204.972 128 181.5V52C128 40.9543 119.046 32 108 32H63ZM85.5 195.124C93.0244 195.124 99.1241 189.024 99.1241 181.5C99.1241 173.976 93.0244 167.876 85.5 167.876C77.9756 167.876 71.8759 173.976 71.8759 181.5C71.8759 189.024 77.9756 195.124 85.5 195.124Z"
  />
</svg>