<svg width="256" height="256" viewBox="0 0 256 256" xmlns="http://www.w3.org/2000/svg">
  <path
    fill="var(--app-icon-main-color)"
    fillRule="evenodd"
    clipRule="evenodd"
    d="M90.26 117.897C101.95 117.897 112.082 111.229 117.061 101.489H213.992C221.544 101.489 227.665 95.3669 227.665 87.8153C227.665 80.2637 221.544 74.1419 213.992 74.1419H117.061C112.082 64.4019 101.95 57.7339 90.26 57.7339C78.5701 57.7339 68.4376 64.4019 63.4586 74.1419H42.008C34.4564 74.1419 28.3347 80.2637 28.3347 87.8153C28.3347 95.3669 34.4564 101.489 42.008 101.489H63.4586C68.4376 111.229 78.5701 117.897 90.26 117.897ZM198.191 154.511H213.992C221.544 154.511 227.665 160.633 227.665 168.185C227.665 175.736 221.544 181.858 213.992 181.858H198.191C193.212 191.598 183.08 198.266 171.39 198.266C159.7 198.266 149.568 191.598 144.589 181.858H42.008C34.4564 181.858 28.3347 175.736 28.3347 168.185C28.3347 160.633 34.4564 154.511 42.008 154.511H144.589C149.568 144.771 159.7 138.103 171.39 138.103C183.08 138.103 193.212 144.771 198.191 154.511Z"
  />
</svg>