<svg width="256" height="256" viewBox="0 0 256 256" xmlns="http://www.w3.org/2000/svg">
  <path
    fill="var(--app-icon-main-color)"
    fillRule="evenodd"
    clipRule="evenodd"
    d="M107.113 43.7499C113.07 40.0113 120.186 38.0405 127.443 38.0006C136.825 37.9491 145.933 41.1269 152.603 47.2223C159.127 53.1846 163.893 62.4545 163.893 75.8757V113.376H181.893V75.8757C181.893 57.797 175.285 43.5669 164.746 33.9354C154.353 24.437 140.711 19.9274 127.344 20.0009C117.189 20.0567 106.898 22.7581 98 28.2191L107.113 43.7499Z"
  />
  <path
    fill="var(--app-icon-second-color)"
    fillRule="evenodd"
    clipRule="evenodd"
    d="M55 113C46.7157 113 40 119.716 40 128V207C40 215.284 46.7157 222 55 222H201C209.284 222 216 215.284 216 207V128C216 119.716 209.284 113 201 113H55ZM125 159C119.477 159 115 163.477 115 169V183C115 188.523 119.477 193 125 193H130C135.523 193 140 188.523 140 183V169C140 163.477 135.523 159 130 159H125Z"
  />
</svg>