<?xml version="1.0" standalone="no"?><!-- Generator: Gravit.io --><svg xmlns="http://www.w3.org/2000/svg" xmlns:xlink="http://www.w3.org/1999/xlink" style="isolation:isolate" viewBox="0 0 256 256" width="256" height="256"><defs><clipPath id="_clipPath_rVIDkObUUk6mvkjcQIoivLI3pl01tizV"><rect width="256" height="256"/></clipPath></defs><g clip-path="url(#_clipPath_rVIDkObUUk6mvkjcQIoivLI3pl01tizV)"><rect width="256" height="256" style="fill:rgb(0,0,0)" fill-opacity="0"/><g><path d=" M 118.336 61.005 C 118.332 57.089 119.254 53.227 121.026 49.735 L 17.106 49.735 C 13.001 49.613 9.155 51.733 7.066 55.268 C 4.978 58.804 4.978 63.196 7.066 66.732 C 9.155 70.267 13.001 72.387 17.106 72.265 L 121.026 72.265 C 119.255 68.776 118.334 64.918 118.336 61.005 L 118.336 61.005 Z " fill="rgb(81,142,243)"/><path d=" M 49.086 128.005 C 49.082 124.089 50.004 120.227 51.776 116.735 L 17.716 116.735 C 11.156 116.735 5.836 121.735 5.836 128.005 C 5.836 134.275 11.166 139.275 17.716 139.275 L 51.776 139.275 C 50.004 135.783 49.082 131.921 49.086 128.005 L 49.086 128.005 Z " fill="rgb(24,159,160)"/><path d=" M 162.336 195.005 C 162.332 191.089 163.254 187.227 165.026 183.735 L 17.106 183.735 C 13.001 183.613 9.155 185.733 7.066 189.268 C 4.978 192.804 4.978 197.196 7.066 200.732 C 9.155 204.267 13.001 206.387 17.106 206.265 L 165.026 206.265 C 163.255 202.776 162.334 198.918 162.336 195.005 Z " fill="rgb(174,78,224)"/><path d=" M 239.574 116.74 L 96.404 116.74 C 91.187 106.405 79.558 101.004 68.296 103.685 C 57.034 106.366 49.086 116.428 49.086 128.005 C 49.086 139.582 57.034 149.644 68.296 152.325 C 79.558 155.006 91.187 149.605 96.404 139.27 L 239.574 139.27 C 245.665 139.089 250.508 134.099 250.508 128.005 C 250.508 121.911 245.665 116.921 239.574 116.74 L 239.574 116.74 Z " fill="rgb(9,35,69)"/><path d=" M 239.574 49.74 L 165.654 49.74 C 160.437 39.405 148.808 34.004 137.546 36.685 C 126.284 39.366 118.336 49.428 118.336 61.005 C 118.336 72.582 126.284 82.644 137.546 85.325 C 148.808 88.006 160.437 82.605 165.654 72.27 L 239.574 72.27 C 245.665 72.089 250.508 67.099 250.508 61.005 C 250.508 54.911 245.665 49.921 239.574 49.74 Z " fill="rgb(9,35,69)"/><path d=" M 239.574 183.74 L 209.654 183.74 C 204.437 173.405 192.808 168.004 181.546 170.685 C 170.284 173.366 162.336 183.428 162.336 195.005 C 162.336 206.582 170.284 216.644 181.546 219.325 C 192.808 222.006 204.437 216.605 209.654 206.27 L 239.574 206.27 C 245.665 206.089 250.508 201.099 250.508 195.005 C 250.508 188.911 245.665 183.921 239.574 183.74 L 239.574 183.74 Z " fill="rgb(9,35,69)"/></g></g></svg>