<svg xmlns="http://www.w3.org/2000/svg" viewBox="0 0 256 256" width="256" height="256">
  <path fill="#518ef3" d="M118,61a24.86,24.86,0,0,1,2.69-11.27H16.77a11.27,11.27,0,1,0,0,22.53H120.69A24.86,24.86,0,0,1,118,61Z" />
  <path fill="#7c71eb" d="M48.75,128a24.86,24.86,0,0,1,2.69-11.27H17.38c-6.56,0-11.88,5-11.88,11.27s5.33,11.27,11.88,11.27H51.44A24.86,24.86,0,0,1,48.75,128Z" />
  <path fill="#ae4ee0" d="M162,195a24.86,24.86,0,0,1,2.69-11.27H16.77a11.27,11.27,0,1,0,0,22.53H164.69A24.86,24.86,0,0,1,162,195Z" />
  <path fill="#f2f2f2" d="M239.23,116.73H96.06a25,25,0,1,0,0,22.53H239.23a11.27,11.27,0,0,0,0-22.53Z" />
  <path fill="#f2f2f2" d="M239.23,49.73H165.31a25,25,0,1,0,0,22.53h73.92a11.27,11.27,0,0,0,0-22.53Z" />
  <path fill="#f2f2f2" d="M239.23,183.73H209.31a25,25,0,1,0,0,22.53h29.92a11.27,11.27,0,0,0,0-22.53Z" />
</svg>