<svg xmlns="http://www.w3.org/2000/svg" xmlns:xlink="http://www.w3.org/1999/xlink" style="isolation:isolate" width="256" height="256" viewBox="0 0 256 256"><path d="M 76.267 116.733 L 239.233 116.733 C 245.451 116.733 250.5 121.782 250.5 128 L 250.5 128 C 250.5 134.218 245.451 139.267 239.233 139.267 L 76.267 139.267 C 70.049 139.267 65 134.218 65 128 L 65 128 C 65 121.782 70.049 116.733 76.267 116.733 Z" style="stroke:none;fill:#f2f2f2;stroke-miterlimit:10"/><path d="M 17.384 116.733 L 80.116 116.733 C 86.675 116.733 92 121.782 92 128 L 92 128 C 92 134.218 86.675 139.267 80.116 139.267 L 17.384 139.267 C 10.825 139.267 5.5 134.218 5.5 128 L 5.5 128 C 5.5 121.782 10.825 116.733 17.384 116.733 Z" style="stroke:none;fill:#75b14b;stroke-miterlimit:10"/><path fill="#F2F2F2" d="M 48.75 128 C 48.75 114.202 59.952 103 73.75 103 C 87.548 103 98.75 114.202 98.75 128 C 98.75 141.798 87.548 153 73.75 153 C 59.952 153 48.75 141.798 48.75 128 Z"/><path d="M 148.267 49.733 L 239.233 49.733 C 245.451 49.733 250.5 54.782 250.5 61 L 250.5 61 C 250.5 67.218 245.451 72.267 239.233 72.267 L 148.267 72.267 C 142.049 72.267 137 67.218 137 61 L 137 61 C 137 54.782 142.049 49.733 148.267 49.733 Z" style="stroke:none;fill:#f2f2f2;stroke-miterlimit:10"/><path d="M 16.767 49.733 L 133.733 49.733 C 139.951 49.733 145 54.782 145 61 L 145 61 C 145 67.218 139.951 72.267 133.733 72.267 L 16.767 72.267 C 10.549 72.267 5.5 67.218 5.5 61 L 5.5 61 C 5.5 54.782 10.549 49.733 16.767 49.733 Z" style="stroke:none;fill:#de614d;stroke-miterlimit:10"/><path fill="#F2F2F2" d="M 118 61 C 118 47.202 129.202 36 143 36 C 156.798 36 168 47.202 168 61 C 168 74.798 156.798 86 143 86 C 129.202 86 118 74.798 118 61 Z"/><path d="M 198.267 183.733 L 239.233 183.733 C 245.451 183.733 250.5 188.782 250.5 195 L 250.5 195 C 250.5 201.218 245.451 206.267 239.233 206.267 L 198.267 206.267 C 192.049 206.267 187 201.218 187 195 L 187 195 C 187 188.782 192.049 183.733 198.267 183.733 Z" style="stroke:none;fill:#f2f2f2;stroke-miterlimit:10"/><path d="M 16.767 183.733 L 175.733 183.733 C 181.951 183.733 187 188.782 187 195 L 187 195 C 187 201.218 181.951 206.267 175.733 206.267 L 16.767 206.267 C 10.549 206.267 5.5 201.218 5.5 195 L 5.5 195 C 5.5 188.782 10.549 183.733 16.767 183.733 Z" style="stroke:none;fill:#4fa1d1;stroke-miterlimit:10"/><path fill="#F2F2F2" d="M 162 195 C 162 181.202 173.202 170 187 170 C 200.798 170 212 181.202 212 195 C 212 208.798 200.798 220 187 220 C 173.202 220 162 208.798 162 195 Z"/></svg>