<svg width="512" height="512" viewBox="0 0 512 512" fill="none" xmlns="http://www.w3.org/2000/svg">
<path fill-rule="evenodd" clip-rule="evenodd" d="M255.5 115C333.096 115 396 177.904 396 255.5C396 333.096 333.096 396 255.5 396C177.904 396 115 333.096 115 255.5C115 177.904 177.904 115 255.5 115Z" fill="url(#paint0_radial_3418_156)"/>
<path d="M274.385 364C264.977 364 257.491 362.218 251.925 358.655C246.493 354.959 242.65 349.746 240.398 343.015C238.145 336.152 237.019 327.97 237.019 318.467V280.061H208V257.492H264.447V322.03C264.447 326.122 264.911 329.553 265.839 332.325C266.899 334.964 268.489 336.944 270.609 338.264C272.861 339.584 275.776 340.244 279.354 340.244C281.739 340.244 284.721 339.98 288.298 339.452C291.876 338.792 295.917 337.406 300.422 335.294L304 357.269C300.29 358.985 296.712 360.371 293.267 361.426C289.822 362.35 286.509 363.01 283.329 363.406C280.149 363.802 277.168 364 274.385 364ZM246.957 242.843C242.319 242.843 238.277 241.259 234.832 238.091C231.387 234.924 229.665 230.701 229.665 225.421C229.665 220.01 231.387 215.787 234.832 212.751C238.277 209.584 242.319 208 246.957 208C251.594 208 255.636 209.584 259.081 212.751C262.526 215.787 264.248 220.01 264.248 225.421C264.248 230.701 262.526 234.924 259.081 238.091C255.636 241.259 251.594 242.843 246.957 242.843Z" fill="white"/>
<defs>
<radialGradient id="paint0_radial_3418_156" cx="0" cy="0" r="1" gradientUnits="userSpaceOnUse" gradientTransform="translate(330 371.5) rotate(-128.597) scale(285.33 285.357)">
<stop stop-color="#FF77CD"/>
<stop offset="0.403846" stop-color="#9558DA"/>
<stop offset="0.528846" stop-color="#6A18E8"/>
<stop offset="1" stop-color="#2CAFEC"/>
</radialGradient>
</defs>
</svg>
