<svg width="512" height="512" viewBox="0 0 512 512" fill="none" xmlns="http://www.w3.org/2000/svg">
<path fill-rule="evenodd" clip-rule="evenodd" d="M255.5 87C348.56 87 424 162.44 424 255.5C424 348.56 348.56 424 255.5 424C162.44 424 87 348.56 87 255.5C87 162.44 162.44 87 255.5 87Z" fill="url(#paint0_radial_3418_156)"/>
<path fill-rule="evenodd" clip-rule="evenodd" d="M255.5 87C348.56 87 424 162.44 424 255.5C424 348.56 348.56 424 255.5 424C162.44 424 87 348.56 87 255.5C87 162.44 162.44 87 255.5 87Z" fill="url(#paint1_linear_3418_156)" fill-opacity="0.43" style="mix-blend-mode:overlay"/>
<g filter="url(#filter0_i_3418_156)">
<path d="M274.385 361C264.977 361 257.491 359.218 251.925 355.655C246.493 351.959 242.65 346.746 240.398 340.015C238.145 333.152 237.019 324.97 237.019 315.467V277.061H208V254.492H264.447V319.03C264.447 323.122 264.911 326.553 265.839 329.325C266.899 331.964 268.489 333.944 270.609 335.264C272.861 336.584 275.776 337.244 279.354 337.244C281.739 337.244 284.721 336.98 288.298 336.452C291.876 335.792 295.917 334.406 300.422 332.294L304 354.269C300.29 355.985 296.712 357.371 293.267 358.426C289.822 359.35 286.509 360.01 283.329 360.406C280.149 360.802 277.168 361 274.385 361ZM246.957 239.843C242.319 239.843 238.277 238.259 234.832 235.091C231.387 231.924 229.665 227.701 229.665 222.421C229.665 217.01 231.387 212.787 234.832 209.751C238.277 206.584 242.319 205 246.957 205C251.594 205 255.636 206.584 259.081 209.751C262.526 212.787 264.248 217.01 264.248 222.421C264.248 227.701 262.526 231.924 259.081 235.091C255.636 238.259 251.594 239.843 246.957 239.843Z" fill="white"/>
</g>
<defs>
<filter id="filter0_i_3418_156" x="208" y="205" width="101.1" height="161.1" filterUnits="userSpaceOnUse" color-interpolation-filters="sRGB">
<feFlood flood-opacity="0" result="BackgroundImageFix"/>
<feBlend mode="normal" in="SourceGraphic" in2="BackgroundImageFix" result="shape"/>
<feColorMatrix in="SourceAlpha" type="matrix" values="0 0 0 0 0 0 0 0 0 0 0 0 0 0 0 0 0 0 127 0" result="hardAlpha"/>
<feOffset dx="6" dy="7"/>
<feGaussianBlur stdDeviation="2.55"/>
<feComposite in2="hardAlpha" operator="arithmetic" k2="-1" k3="1"/>
<feColorMatrix type="matrix" values="0 0 0 0 0.815686 0 0 0 0 0.278431 0 0 0 0 0.756863 0 0 0 0.26 0"/>
<feBlend mode="normal" in2="shape" result="effect1_innerShadow_3418_156"/>
</filter>
<radialGradient id="paint0_radial_3418_156" cx="0" cy="0" r="1" gradientUnits="userSpaceOnUse" gradientTransform="translate(344.847 394.617) rotate(-128.597) scale(342.192 342.226)">
<stop stop-color="#FF77CD"/>
<stop offset="0.403846" stop-color="#9558DA"/>
<stop offset="0.528846" stop-color="#6A18E8"/>
<stop offset="1" stop-color="#2CAFEC"/>
</radialGradient>
<linearGradient id="paint1_linear_3418_156" x1="162" y1="111" x2="358" y2="403" gradientUnits="userSpaceOnUse">
<stop stop-color="white"/>
<stop offset="1"/>
</linearGradient>
</defs>
</svg>
