<svg width="520" height="520" viewBox="0 0 520 520" fill="none" xmlns="http://www.w3.org/2000/svg">
<g filter="url(#filter0_d_3413_71)">
<g filter="url(#filter1_di_3413_71)">
<path d="M449.432 351.098H398.625C394.322 342.572 387.27 335.747 378.609 331.724C369.948 327.702 360.184 326.717 350.894 328.928C341.604 331.14 333.331 336.419 327.412 343.913C321.493 351.407 318.273 360.677 318.273 370.227C318.273 379.776 321.493 389.047 327.412 396.541C333.331 404.034 341.604 409.314 350.894 411.525C360.184 413.737 369.948 412.752 378.609 408.729C387.27 404.706 394.322 397.881 398.625 389.356H449.432C454.407 389.208 459.128 387.127 462.595 383.556C466.061 379.985 468 375.204 468 370.227C468 365.25 466.061 360.469 462.595 356.897C459.128 353.326 454.407 351.246 449.432 351.098Z" fill="white"/>
</g>
<g filter="url(#filter2_di_3413_71)">
<path d="M449.432 237.324H206.314C202.011 228.799 194.959 221.974 186.298 217.951C177.637 213.928 167.873 212.943 158.583 215.155C149.293 217.366 141.02 222.646 135.101 230.139C129.182 237.633 125.962 246.904 125.962 256.453C125.962 266.003 129.182 275.273 135.101 282.767C141.02 290.261 149.293 295.54 158.583 297.752C167.873 299.964 177.637 298.978 186.298 294.956C194.959 290.933 202.011 284.108 206.314 275.583H449.432C454.407 275.434 459.128 273.354 462.595 269.783C466.061 266.211 468 261.43 468 256.453C468 251.476 466.061 246.695 462.595 243.124C459.128 239.553 454.407 237.472 449.432 237.324Z" fill="white"/>
</g>
<g filter="url(#filter3_di_3413_71)">
<path d="M449.432 123.551H323.908C319.605 115.026 312.553 108.2 303.892 104.177C295.231 100.155 285.467 99.1697 276.177 101.381C266.887 103.593 258.615 108.872 252.695 116.366C246.776 123.86 243.556 133.13 243.556 142.68C243.556 152.229 246.776 161.5 252.695 168.994C258.615 176.488 266.887 181.767 276.177 183.978C285.467 186.19 295.231 185.205 303.892 181.182C312.553 177.16 319.605 170.334 323.908 161.809H449.432C454.407 161.661 459.128 159.58 462.595 156.009C466.061 152.438 468 147.657 468 142.68C468 137.703 466.061 132.922 462.595 129.351C459.128 125.779 454.407 123.699 449.432 123.551Z" fill="white"/>
</g>
<g filter="url(#filter4_n_3413_71)">
<g filter="url(#filter5_d_3413_71)">
<path d="M318.287 370.235C318.284 363.586 319.849 357.029 322.855 351.098H71.6706C66.6031 350.956 61.6867 352.832 58.0004 356.312C54.3141 359.791 52.1592 364.592 52.0085 369.659C51.8578 374.726 53.7237 379.646 57.1967 383.339C60.6697 387.032 65.466 389.196 70.5328 389.356C70.9064 389.356 71.297 389.356 71.6706 389.356H322.855C319.851 383.43 318.286 376.879 318.287 370.235V370.235Z" fill="url(#paint0_linear_3413_71)"/>
<path d="M318.287 370.235C318.284 363.586 319.849 357.029 322.855 351.098H71.6706C66.6031 350.956 61.6867 352.832 58.0004 356.312C54.3141 359.791 52.1592 364.592 52.0085 369.659C51.8578 374.726 53.7237 379.646 57.1967 383.339C60.6697 387.032 65.466 389.196 70.5328 389.356C70.9064 389.356 71.297 389.356 71.6706 389.356H322.855C319.851 383.43 318.286 376.879 318.287 370.235V370.235Z" fill="url(#paint1_linear_3413_71)" fill-opacity="0.8" style="mix-blend-mode:soft-light"/>
<path d="M318.287 370.235C318.284 363.586 319.849 357.029 322.855 351.098H71.6706C66.6031 350.956 61.6867 352.832 58.0004 356.312C54.3141 359.791 52.1592 364.592 52.0085 369.659C51.8578 374.726 53.7237 379.646 57.1967 383.339C60.6697 387.032 65.466 389.196 70.5328 389.356C70.9064 389.356 71.297 389.356 71.6706 389.356H322.855C319.851 383.43 318.286 376.879 318.287 370.235V370.235Z" fill="url(#paint2_linear_3413_71)" fill-opacity="0.6" style="mix-blend-mode:soft-light"/>
</g>
<g filter="url(#filter6_d_3413_71)">
<path d="M125.976 256.462C125.973 249.812 127.538 243.255 130.544 237.324H72.7064C61.5668 237.324 52.5329 245.815 52.5329 256.462C52.5329 267.109 61.5838 275.599 72.7064 275.599H130.544C127.538 269.668 125.973 263.111 125.976 256.462V256.462Z" fill="url(#paint3_linear_3413_71)"/>
<path d="M125.976 256.462C125.973 249.812 127.538 243.255 130.544 237.324H72.7064C61.5668 237.324 52.5329 245.815 52.5329 256.462C52.5329 267.109 61.5838 275.599 72.7064 275.599H130.544C127.538 269.668 125.973 263.111 125.976 256.462V256.462Z" fill="url(#paint4_linear_3413_71)" fill-opacity="0.8" style="mix-blend-mode:soft-light"/>
<path d="M125.976 256.462C125.973 249.812 127.538 243.255 130.544 237.324H72.7064C61.5668 237.324 52.5329 245.815 52.5329 256.462C52.5329 267.109 61.5838 275.599 72.7064 275.599H130.544C127.538 269.668 125.973 263.111 125.976 256.462V256.462Z" fill="url(#paint5_linear_3413_71)" fill-opacity="0.6" style="mix-blend-mode:soft-light"/>
</g>
<g filter="url(#filter7_d_3413_71)">
<path d="M243.57 142.688C243.568 136.039 245.133 129.482 248.138 123.551H71.6706C66.6032 123.409 61.6867 125.285 58.0004 128.765C54.3141 132.245 52.1592 137.045 52.0085 142.112C51.8578 147.179 53.7237 152.099 57.1967 155.792C60.6697 159.485 65.466 161.649 70.5328 161.809H248.138C245.135 155.883 243.57 149.332 243.57 142.688V142.688Z" fill="url(#paint6_linear_3413_71)"/>
<path d="M243.57 142.688C243.568 136.039 245.133 129.482 248.138 123.551H71.6706C66.6032 123.409 61.6867 125.285 58.0004 128.765C54.3141 132.245 52.1592 137.045 52.0085 142.112C51.8578 147.179 53.7237 152.099 57.1967 155.792C60.6697 159.485 65.466 161.649 70.5328 161.809H248.138C245.135 155.883 243.57 149.332 243.57 142.688V142.688Z" fill="url(#paint7_linear_3413_71)" fill-opacity="0.8" style="mix-blend-mode:soft-light"/>
<path d="M243.57 142.688C243.568 136.039 245.133 129.482 248.138 123.551H71.6706C66.6032 123.409 61.6867 125.285 58.0004 128.765C54.3141 132.245 52.1592 137.045 52.0085 142.112C51.8578 147.179 53.7237 152.099 57.1967 155.792C60.6697 159.485 65.466 161.649 70.5328 161.809H248.138C245.135 155.883 243.57 149.332 243.57 142.688V142.688Z" fill="url(#paint8_linear_3413_71)" fill-opacity="0.6" style="mix-blend-mode:soft-light"/>
</g>
</g>
<g filter="url(#filter8_di_3413_71)">
<circle cx="360.639" cy="369.814" r="42.5069" fill="url(#paint9_linear_3413_71)"/>
</g>
<g filter="url(#filter9_di_3413_71)">
<circle cx="168.302" cy="256.462" r="42.5069" fill="url(#paint10_linear_3413_71)"/>
</g>
<g filter="url(#filter10_di_3413_71)">
<circle cx="285.875" cy="142.507" r="42.5069" fill="url(#paint11_linear_3413_71)"/>
</g>
</g>
<defs>
<linearGradient id="paint0_linear_3413_71" x1="52" y1="370.223" x2="322.855" y2="370.223" gradientUnits="userSpaceOnUse">
<stop stop-color="#4FA1D1"/>
<stop offset="1" stop-color="#24A9F6"/>
</linearGradient>
<linearGradient id="paint1_linear_3413_71" x1="187.428" y1="351.09" x2="187.428" y2="389.356" gradientUnits="userSpaceOnUse">
<stop stop-color="#B7B7B7"/>
<stop offset="0.364583" stop-color="#A7A1A1" stop-opacity="0"/>
<stop offset="0.364683" stop-color="#474747" stop-opacity="0"/>
<stop offset="0.911458"/>
</linearGradient>
<linearGradient id="paint2_linear_3413_71" x1="70.6269" y1="382.777" x2="116.631" y2="350.377" gradientUnits="userSpaceOnUse">
<stop stop-color="#313131"/>
<stop offset="0.541667" stop-color="#8C8C8C" stop-opacity="0"/>
</linearGradient>
<linearGradient id="paint3_linear_3413_71" x1="45" y1="261" x2="131" y2="261" gradientUnits="userSpaceOnUse">
<stop stop-color="#75B14B"/>
<stop offset="1" stop-color="#8CE64D"/>
</linearGradient>
<linearGradient id="paint4_linear_3413_71" x1="91.5385" y1="237.324" x2="91.5385" y2="275.599" gradientUnits="userSpaceOnUse">
<stop stop-color="#B7B7B7"/>
<stop offset="0.364583" stop-color="#A7A1A1" stop-opacity="0"/>
<stop offset="0.364683" stop-color="#474747" stop-opacity="0"/>
<stop offset="0.911458"/>
</linearGradient>
<linearGradient id="paint5_linear_3413_71" x1="57.8978" y1="269.019" x2="76.9371" y2="265.158" gradientUnits="userSpaceOnUse">
<stop stop-color="#313131"/>
<stop offset="0.541667" stop-color="#8C8C8C" stop-opacity="0"/>
</linearGradient>
<linearGradient id="paint6_linear_3413_71" x1="52" y1="142.676" x2="248.138" y2="142.676" gradientUnits="userSpaceOnUse">
<stop stop-color="#DE614D"/>
<stop offset="1" stop-color="#ED4A30"/>
</linearGradient>
<linearGradient id="paint7_linear_3413_71" x1="150.069" y1="123.543" x2="150.069" y2="161.809" gradientUnits="userSpaceOnUse">
<stop stop-color="#B7B7B7"/>
<stop offset="0.364583" stop-color="#A7A1A1" stop-opacity="0"/>
<stop offset="0.364683" stop-color="#474747" stop-opacity="0"/>
<stop offset="0.911458"/>
</linearGradient>
<linearGradient id="paint8_linear_3413_71" x1="65.4885" y1="155.23" x2="105.039" y2="135.059" gradientUnits="userSpaceOnUse">
<stop stop-color="#313131"/>
<stop offset="0.541667" stop-color="#8C8C8C" stop-opacity="0"/>
</linearGradient>
<linearGradient id="paint9_linear_3413_71" x1="382.947" y1="325.498" x2="349.484" y2="414.732" gradientUnits="userSpaceOnUse">
<stop offset="0.572917" stop-color="white"/>
<stop offset="1" stop-color="#DEDEDE"/>
</linearGradient>
<linearGradient id="paint10_linear_3413_71" x1="190.611" y1="212.146" x2="157.148" y2="301.38" gradientUnits="userSpaceOnUse">
<stop offset="0.572917" stop-color="white"/>
<stop offset="1" stop-color="#DEDEDE"/>
</linearGradient>
<linearGradient id="paint11_linear_3413_71" x1="308.183" y1="98.1912" x2="274.72" y2="187.426" gradientUnits="userSpaceOnUse">
<stop offset="0.572917" stop-color="white"/>
<stop offset="1" stop-color="#DEDEDE"/>
</linearGradient>
</defs>
</svg>
