<svg width="512" height="512" viewBox="0 0 512 512" fill="none" xmlns="http://www.w3.org/2000/svg">
<g filter="url(#filter0_i_3415_71)">
<path fill-rule="evenodd" clip-rule="evenodd" d="M291 241.801C291 240.97 291 240.139 290.995 239.308C290.991 238.608 290.983 237.908 290.964 237.208C290.923 235.683 290.833 234.145 290.562 232.637C290.287 231.107 289.837 229.683 289.129 228.293C288.434 226.926 287.525 225.676 286.44 224.592C285.355 223.508 284.105 222.6 282.738 221.904C281.347 221.196 279.921 220.747 278.39 220.472C276.881 220.202 275.343 220.112 273.818 220.071C273.117 220.052 272.417 220.044 271.717 220.039C270.885 220.034 270.054 220.035 269.222 220.035L259.568 220H252.347L242.863 220.035C242.03 220.035 241.197 220.034 240.364 220.039C239.662 220.044 238.96 220.052 238.259 220.071C236.73 220.112 235.188 220.202 233.676 220.473C232.143 220.748 230.715 221.197 229.322 221.904C227.952 222.6 226.699 223.508 225.612 224.592C224.526 225.676 223.615 226.926 222.918 228.292C222.208 229.683 221.758 231.108 221.482 232.638C221.21 234.146 221.12 235.684 221.079 237.208C221.06 237.908 221.052 238.608 221.048 239.308C221.043 240.139 221 241.171 221 242.002V258.653L221.043 268.204C221.043 269.036 221.043 269.868 221.048 270.7C221.052 271.401 221.06 272.102 221.079 272.803C221.12 274.33 221.211 275.871 221.482 277.381C221.758 278.913 222.208 280.339 222.917 281.73C223.615 283.099 224.525 284.351 225.612 285.436C226.699 286.521 227.952 287.431 229.321 288.128C230.715 288.837 232.143 289.286 233.678 289.562C235.189 289.833 236.731 289.923 238.259 289.964C238.96 289.983 239.662 289.991 240.364 289.995C241.197 290 242.03 290 242.863 290L269.222 290C270.054 290 270.885 290 271.717 289.995C272.417 289.991 273.117 289.983 273.818 289.964C275.343 289.923 276.882 289.833 278.391 289.561C279.922 289.286 281.347 288.836 282.738 288.128C284.105 287.431 285.355 286.522 286.44 285.436C287.524 284.351 288.433 283.099 289.129 281.731C289.838 280.339 290.287 278.912 290.562 277.379C290.833 275.869 290.923 274.33 290.964 272.803C290.983 272.102 290.991 271.401 290.995 270.7C291 269.868 291 269.036 291 268.204C291 268.204 290.999 258.822 290.999 258.653V251.347C290.999 251.223 291 241.801 291 241.801Z" fill="url(#paint0_linear_3415_71)"/>
<path fill-rule="evenodd" clip-rule="evenodd" d="M291 241.801C291 240.97 291 240.139 290.995 239.308C290.991 238.608 290.983 237.908 290.964 237.208C290.923 235.683 290.833 234.145 290.562 232.637C290.287 231.107 289.837 229.683 289.129 228.293C288.434 226.926 287.525 225.676 286.44 224.592C285.355 223.508 284.105 222.6 282.738 221.904C281.347 221.196 279.921 220.747 278.39 220.472C276.881 220.202 275.343 220.112 273.818 220.071C273.117 220.052 272.417 220.044 271.717 220.039C270.885 220.034 270.054 220.035 269.222 220.035L259.568 220H252.347L242.863 220.035C242.03 220.035 241.197 220.034 240.364 220.039C239.662 220.044 238.96 220.052 238.259 220.071C236.73 220.112 235.188 220.202 233.676 220.473C232.143 220.748 230.715 221.197 229.322 221.904C227.952 222.6 226.699 223.508 225.612 224.592C224.526 225.676 223.615 226.926 222.918 228.292C222.208 229.683 221.758 231.108 221.482 232.638C221.21 234.146 221.12 235.684 221.079 237.208C221.06 237.908 221.052 238.608 221.048 239.308C221.043 240.139 221 241.171 221 242.002V258.653L221.043 268.204C221.043 269.036 221.043 269.868 221.048 270.7C221.052 271.401 221.06 272.102 221.079 272.803C221.12 274.33 221.211 275.871 221.482 277.381C221.758 278.913 222.208 280.339 222.917 281.73C223.615 283.099 224.525 284.351 225.612 285.436C226.699 286.521 227.952 287.431 229.321 288.128C230.715 288.837 232.143 289.286 233.678 289.562C235.189 289.833 236.731 289.923 238.259 289.964C238.96 289.983 239.662 289.991 240.364 289.995C241.197 290 242.03 290 242.863 290L269.222 290C270.054 290 270.885 290 271.717 289.995C272.417 289.991 273.117 289.983 273.818 289.964C275.343 289.923 276.882 289.833 278.391 289.561C279.922 289.286 281.347 288.836 282.738 288.128C284.105 287.431 285.355 286.522 286.44 285.436C287.524 284.351 288.433 283.099 289.129 281.731C289.838 280.339 290.287 278.912 290.562 277.379C290.833 275.869 290.923 274.33 290.964 272.803C290.983 272.102 290.991 271.401 290.995 270.7C291 269.868 291 269.036 291 268.204C291 268.204 290.999 258.822 290.999 258.653V251.347C290.999 251.223 291 241.801 291 241.801Z" fill="url(#paint1_linear_3415_71)" fill-opacity="0.4" style="mix-blend-mode:overlay"/>
<path fill-rule="evenodd" clip-rule="evenodd" d="M256 87C348.784 87 424 162.216 424 255C424 347.784 348.784 423 256 423C163.216 423 88 347.784 88 255C88 162.216 163.216 87 256 87ZM255.5 116C179.009 116 117 178.009 117 254.5C117 330.991 179.009 393 255.5 393C331.991 393 394 330.991 394 254.5C394 178.009 331.991 116 255.5 116Z" fill="url(#paint2_linear_3415_71)"/>
<path fill-rule="evenodd" clip-rule="evenodd" d="M256 87C348.784 87 424 162.216 424 255C424 347.784 348.784 423 256 423C163.216 423 88 347.784 88 255C88 162.216 163.216 87 256 87ZM255.5 116C179.009 116 117 178.009 117 254.5C117 330.991 179.009 393 255.5 393C331.991 393 394 330.991 394 254.5C394 178.009 331.991 116 255.5 116Z" fill="url(#paint3_linear_3415_71)" fill-opacity="0.4" style="mix-blend-mode:overlay"/>
</g>
<defs>
<filter id="filter0_i_3415_71" x="85" y="84" width="339" height="339" filterUnits="userSpaceOnUse" color-interpolation-filters="sRGB">
<feFlood flood-opacity="0" result="BackgroundImageFix"/>
<feBlend mode="normal" in="SourceGraphic" in2="BackgroundImageFix" result="shape"/>
<feColorMatrix in="SourceAlpha" type="matrix" values="0 0 0 0 0 0 0 0 0 0 0 0 0 0 0 0 0 0 127 0" result="hardAlpha"/>
<feOffset dx="-3" dy="-3"/>
<feGaussianBlur stdDeviation="8.45"/>
<feComposite in2="hardAlpha" operator="arithmetic" k2="-1" k3="1"/>
<feColorMatrix type="matrix" values="0 0 0 0 0 0 0 0 0 0 0 0 0 0 0 0 0 0 0.11 0"/>
<feBlend mode="normal" in2="shape" result="effect1_innerShadow_3415_71"/>
</filter>
<linearGradient id="paint0_linear_3415_71" x1="148" y1="124.5" x2="385.395" y2="395.31" gradientUnits="userSpaceOnUse">
<stop stop-color="#00C6F5"/>
<stop offset="0.489516" stop-color="#B047C9"/>
<stop offset="0.778845" stop-color="#ED5C8C"/>
<stop offset="1" stop-color="#FF8C44"/>
</linearGradient>
<linearGradient id="paint1_linear_3415_71" x1="198" y1="56.5" x2="376" y2="456.5" gradientUnits="userSpaceOnUse">
<stop stop-color="white"/>
<stop offset="1"/>
</linearGradient>
<linearGradient id="paint2_linear_3415_71" x1="148" y1="124.5" x2="385.395" y2="395.31" gradientUnits="userSpaceOnUse">
<stop stop-color="#00C6F5"/>
<stop offset="0.489516" stop-color="#B047C9"/>
<stop offset="0.778845" stop-color="#ED5C8C"/>
<stop offset="1" stop-color="#FF8C44"/>
</linearGradient>
<linearGradient id="paint3_linear_3415_71" x1="198" y1="56.5" x2="376" y2="456.5" gradientUnits="userSpaceOnUse">
<stop stop-color="white"/>
<stop offset="1"/>
</linearGradient>
</defs>
</svg>
