<svg width="520" height="520" viewBox="0 0 520 520" fill="none" xmlns="http://www.w3.org/2000/svg">
<g filter="url(#filter0_d_3415_71)">
<g filter="url(#filter1_n_3415_71)">
<path fill-rule="evenodd" clip-rule="evenodd" d="M295 241.801C295 240.97 295 240.139 294.995 239.308C294.991 238.608 294.983 237.908 294.964 237.208C294.923 235.683 294.833 234.145 294.562 232.637C294.287 231.107 293.837 229.683 293.129 228.293C292.434 226.926 291.525 225.676 290.44 224.592C289.355 223.508 288.105 222.6 286.738 221.904C285.347 221.196 283.921 220.747 282.39 220.472C280.881 220.202 279.343 220.112 277.818 220.071C277.117 220.052 276.417 220.044 275.717 220.039C274.885 220.034 274.054 220.035 273.222 220.035L263.568 220H256.347L246.863 220.035C246.03 220.035 245.197 220.034 244.364 220.039C243.662 220.044 242.96 220.052 242.259 220.071C240.73 220.112 239.188 220.202 237.676 220.473C236.143 220.748 234.715 221.197 233.322 221.904C231.952 222.6 230.699 223.508 229.612 224.592C228.526 225.676 227.615 226.926 226.918 228.292C226.208 229.683 225.758 231.108 225.482 232.638C225.21 234.146 225.12 235.684 225.079 237.208C225.06 237.908 225.052 238.608 225.048 239.308C225.043 240.139 225 241.171 225 242.002V258.653L225.043 268.204C225.043 269.036 225.043 269.868 225.048 270.7C225.052 271.401 225.06 272.102 225.079 272.803C225.12 274.33 225.211 275.871 225.482 277.381C225.758 278.913 226.208 280.339 226.917 281.73C227.615 283.099 228.525 284.351 229.612 285.436C230.699 286.521 231.952 287.431 233.321 288.128C234.715 288.837 236.143 289.286 237.678 289.562C239.189 289.833 240.731 289.923 242.259 289.964C242.96 289.983 243.662 289.991 244.364 289.995C245.197 290 246.03 290 246.863 290L273.222 290C274.054 290 274.885 290 275.717 289.995C276.417 289.991 277.117 289.983 277.818 289.964C279.343 289.923 280.882 289.833 282.391 289.561C283.922 289.286 285.347 288.836 286.738 288.128C288.105 287.431 289.355 286.522 290.44 285.436C291.524 284.351 292.433 283.099 293.129 281.731C293.838 280.339 294.287 278.912 294.562 277.379C294.833 275.869 294.923 274.33 294.964 272.803C294.983 272.102 294.991 271.401 294.995 270.7C295 269.868 295 269.036 295 268.204C295 268.204 294.999 258.822 294.999 258.653V251.347C294.999 251.223 295 241.801 295 241.801Z" fill="url(#paint0_linear_3415_71)"/>
<path fill-rule="evenodd" clip-rule="evenodd" d="M260 87C352.784 87 428 162.216 428 255C428 347.784 352.784 423 260 423C167.216 423 92 347.784 92 255C92 162.216 167.216 87 260 87ZM259.5 116C183.009 116 121 178.009 121 254.5C121 330.991 183.009 393 259.5 393C335.991 393 398 330.991 398 254.5C398 178.009 335.991 116 259.5 116Z" fill="url(#paint1_linear_3415_71)"/>
</g>
</g>
<defs>
<linearGradient id="paint0_linear_3415_71" x1="-215.2" y1="-385.8" x2="814.4" y2="859.8" gradientUnits="userSpaceOnUse">
<stop stop-color="#04C3F4"/>
<stop offset="0.312499" stop-color="#8765D3"/>
<stop offset="0.749999" stop-color="#D353A7"/>
</linearGradient>
<linearGradient id="paint1_linear_3415_71" x1="152" y1="124.5" x2="389.395" y2="395.31" gradientUnits="userSpaceOnUse">
<stop stop-color="#00C6F5"/>
<stop offset="0.489516" stop-color="#B047C9"/>
<stop offset="0.778845" stop-color="#ED5C8C"/>
<stop offset="1" stop-color="#FF8C44"/>
</linearGradient>
</defs>
</svg>
