<svg width="512" height="512" viewBox="0 0 512 512" fill="none" xmlns="http://www.w3.org/2000/svg">
<path fill-rule="evenodd" clip-rule="evenodd" d="M410 197.235C410 193.567 410.001 189.898 409.979 186.23C409.961 183.139 409.925 180.05 409.841 176.961C409.659 170.228 409.262 163.438 408.065 156.781C406.851 150.028 404.868 143.742 401.743 137.606C398.671 131.575 394.658 126.056 389.87 121.272C385.083 116.487 379.563 112.477 373.53 109.407C367.387 106.281 361.095 104.299 354.334 103.085C347.676 101.889 340.884 101.493 334.152 101.311C331.061 101.228 327.97 101.192 324.878 101.173C321.207 101.151 317.537 101.153 313.866 101.153L271.249 101H239.374L197.51 101.153C193.833 101.153 190.155 101.151 186.478 101.173C183.379 101.192 180.283 101.228 177.186 101.311C170.437 101.493 163.63 101.89 156.956 103.087C150.187 104.3 143.885 106.282 137.734 109.405C131.688 112.476 126.156 116.486 121.359 121.272C116.563 126.056 112.542 131.574 109.465 137.604C106.331 143.743 104.345 150.032 103.127 156.789C101.929 163.444 101.532 170.231 101.349 176.961C101.266 180.05 101.23 183.14 101.211 186.23C101.189 189.899 101 194.456 101 198.125L101.001 239.408L101 271.624L101.19 313.785C101.19 317.459 101.189 321.132 101.211 324.806C101.23 327.9 101.266 330.994 101.349 334.087C101.532 340.828 101.93 347.628 103.129 354.294C104.346 361.057 106.332 367.351 109.463 373.495C112.541 379.535 116.562 385.061 121.359 389.852C126.156 394.643 131.686 398.659 137.731 401.734C143.886 404.863 150.19 406.848 156.964 408.064C163.635 409.261 170.44 409.658 177.186 409.84C180.283 409.923 183.38 409.959 186.478 409.978C190.156 410 193.833 409.999 197.51 409.999L239.752 410H271.706L313.866 409.998C317.537 409.998 321.207 410 324.878 409.978C327.97 409.959 331.061 409.923 334.152 409.84C340.887 409.658 347.681 409.26 354.342 408.062C361.099 406.847 367.388 404.863 373.527 401.735C379.561 398.66 385.083 394.644 389.87 389.852C394.657 385.061 398.67 379.536 401.742 373.498C404.868 367.351 406.851 361.053 408.066 354.286C409.263 347.623 409.659 340.826 409.841 334.087C409.925 330.993 409.961 327.9 409.979 324.806C410.002 321.132 410 317.459 410 313.785C410 313.785 409.998 272.369 409.998 271.624V239.374C409.998 238.825 410 197.235 410 197.235Z" fill="url(#paint0_linear_3418_154)"/>
<g filter="url(#filter0_i_3418_154)">
<path fill-rule="evenodd" clip-rule="evenodd" d="M381 178.86C381 175.892 381.001 172.924 380.983 169.956C380.968 167.456 380.939 164.956 380.871 162.457C380.725 157.01 380.403 151.517 379.434 146.13C378.452 140.666 376.848 135.581 374.32 130.617C371.834 125.737 368.587 121.272 364.714 117.401C360.841 113.53 356.375 110.285 351.493 107.802C346.524 105.273 341.433 103.669 335.963 102.687C330.576 101.72 325.081 101.399 319.634 101.252C317.133 101.184 314.632 101.156 312.131 101.14C309.161 101.122 306.192 101.123 303.222 101.123L268.742 101H242.953L209.083 101.123C206.107 101.123 203.132 101.122 200.157 101.14C197.65 101.156 195.145 101.184 192.639 101.252C187.179 101.399 181.672 101.72 176.272 102.688C170.795 103.67 165.697 105.273 160.72 107.8C155.829 110.285 151.353 113.529 147.472 117.401C143.591 121.272 140.339 125.736 137.849 130.615C135.313 135.581 133.706 140.67 132.721 146.137C131.752 151.521 131.43 157.013 131.282 162.457C131.215 164.956 131.186 167.456 131.171 169.956C131.153 172.924 131 176.612 131 179.58L131.001 212.981L131 239.046L131.154 273.156C131.154 276.128 131.153 279.1 131.171 282.072C131.186 284.576 131.215 287.079 131.283 289.582C131.43 295.036 131.752 300.537 132.723 305.931C133.707 311.402 135.314 316.494 137.847 321.465C140.338 326.352 143.591 330.823 147.472 334.699C151.352 338.576 155.827 341.824 160.718 344.312C165.697 346.844 170.798 348.45 176.278 349.433C181.676 350.402 187.181 350.723 192.639 350.87C195.145 350.938 197.65 350.967 200.157 350.982C203.132 351 206.107 350.999 209.083 350.999L243.259 351H269.112L303.222 350.999C306.192 350.999 309.161 351 312.131 350.982C314.632 350.967 317.133 350.938 319.634 350.87C325.083 350.723 330.58 350.401 335.969 349.432C341.436 348.449 346.524 346.843 351.491 344.313C356.373 341.826 360.841 338.576 364.714 334.699C368.587 330.823 371.833 326.353 374.319 321.467C376.848 316.494 378.453 311.399 379.436 305.924C380.404 300.533 380.725 295.034 380.872 289.582C380.939 287.079 380.968 284.576 380.983 282.072C381.001 279.1 381 276.128 381 273.156C381 273.156 380.998 239.648 380.998 239.046V212.953C380.998 212.509 381 178.86 381 178.86Z" fill="url(#paint1_linear_3418_154)"/>
</g>
<path d="M137.654 273.127L137.5 239.046L137.501 212.981V212.98L137.5 179.58L137.506 178.501C137.518 177.389 137.547 176.182 137.577 174.926C137.617 173.286 137.661 171.553 137.671 169.996V169.995C137.686 167.518 137.715 165.069 137.78 162.634C137.925 157.296 138.236 152.189 139.118 147.289C140.005 142.367 141.428 137.898 143.638 133.569C145.68 129.568 148.311 125.883 151.432 122.645L152.062 122.003C155.461 118.613 159.381 115.771 163.663 113.596C168.004 111.392 172.485 109.971 177.419 109.087L177.42 109.086C182.337 108.204 187.461 107.893 192.813 107.749H192.814C195.255 107.683 197.71 107.655 200.196 107.64C203.147 107.622 206.101 107.623 209.083 107.623H209.106L242.977 107.5H268.719L303.199 107.623H303.222C304.71 107.623 306.191 107.623 307.668 107.625L312.091 107.64C314.572 107.655 317.022 107.683 319.458 107.749H319.459C324.799 107.893 329.91 108.204 334.814 109.085C339.74 109.969 344.212 111.39 348.545 113.595C352.816 115.768 356.727 118.609 360.118 121.998L360.119 121.999C363.299 125.176 365.996 128.81 368.112 132.771L368.527 133.566C370.732 137.895 372.153 142.361 373.037 147.28V147.281C373.919 152.184 374.23 157.293 374.374 162.632V162.634C374.44 165.068 374.469 167.516 374.483 169.995V169.996C374.501 172.94 374.5 175.887 374.5 178.86V184.124C374.5 187.285 374.499 191.506 374.499 195.739C374.499 204.202 374.498 212.722 374.498 212.953V239.046C374.498 239.352 374.499 247.878 374.499 256.327C374.499 260.553 374.5 264.76 374.5 267.911V273.156C374.5 276.135 374.502 279.085 374.483 282.032V282.034C374.472 283.895 374.453 285.74 374.417 287.574L374.374 289.406C374.23 294.751 373.919 299.867 373.038 304.775C372.153 309.707 370.731 314.184 368.525 318.521C366.35 322.796 363.507 326.711 360.116 330.104L360.115 330.105C356.724 333.5 352.813 336.345 348.541 338.521H348.54C344.21 340.728 339.74 342.15 334.818 343.035C329.912 343.918 324.8 344.229 319.458 344.373C317.022 344.439 314.572 344.467 312.092 344.482H312.091C310.618 344.491 309.145 344.495 307.668 344.497L303.222 344.499L269.111 344.5H243.26L209.083 344.499C207.592 344.499 206.109 344.499 204.629 344.497L200.196 344.482C198.332 344.471 196.485 344.453 194.648 344.416L192.814 344.373L190.818 344.311C186.186 344.142 181.727 343.807 177.427 343.035L176.506 342.863C171.93 341.969 167.735 340.588 163.664 338.518H163.663C159.382 336.34 155.464 333.495 152.065 330.101C148.879 326.918 146.176 323.278 144.055 319.312L143.639 318.514C141.43 314.18 140.007 309.706 139.12 304.779C138.237 299.869 137.925 294.753 137.78 289.406C137.747 288.187 137.723 286.964 137.706 285.736L137.671 282.033C137.653 279.085 137.654 276.134 137.654 273.156V273.127Z" stroke="url(#paint2_linear_3418_154)" stroke-width="13"/>
<g filter="url(#filter1_i_3418_154)">
<path d="M264.859 288C253.754 288 244.31 285.583 236.525 280.749C228.855 275.799 223.017 268.663 219.01 259.34C215.003 250.017 213 238.737 213 225.5C213 212.263 215.347 200.983 220.04 191.66C224.734 182.337 231.145 175.258 239.273 170.424C247.515 165.475 256.788 163 267.091 163C272.7 163 277.566 163.576 281.687 164.727C285.923 165.878 289.357 167.144 291.99 168.525C294.737 169.791 296.683 170.827 297.828 171.633L291.646 190.624C288.785 188.668 285.236 187.056 281 185.79C276.764 184.409 272.013 183.718 266.747 183.718C261.939 183.718 257.246 184.984 252.667 187.517C248.088 189.934 244.31 194.135 241.333 200.12C238.471 206.105 237.04 214.335 237.04 224.809C237.04 233.787 238.071 241.442 240.131 247.772C242.192 254.103 245.455 258.937 249.919 262.275C254.384 265.613 260.108 267.282 267.091 267.282C273.158 267.282 278.253 266.591 282.374 265.21C286.495 263.829 289.758 262.39 292.162 260.894L298 279.54C294.795 281.612 290.33 283.569 284.606 285.41C278.882 287.137 272.3 288 264.859 288Z" fill="#533093"/>
</g>
<defs>
<filter id="filter0_i_3418_154" x="123" y="93" width="258" height="258" filterUnits="userSpaceOnUse" color-interpolation-filters="sRGB">
<feFlood flood-opacity="0" result="BackgroundImageFix"/>
<feBlend mode="normal" in="SourceGraphic" in2="BackgroundImageFix" result="shape"/>
<feColorMatrix in="SourceAlpha" type="matrix" values="0 0 0 0 0 0 0 0 0 0 0 0 0 0 0 0 0 0 127 0" result="hardAlpha"/>
<feOffset dx="-8" dy="-8"/>
<feGaussianBlur stdDeviation="14.5"/>
<feComposite in2="hardAlpha" operator="arithmetic" k2="-1" k3="1"/>
<feColorMatrix type="matrix" values="0 0 0 0 0.369505 0 0 0 0 0.82136 0 0 0 0 1 0 0 0 0.69 0"/>
<feBlend mode="normal" in2="shape" result="effect1_innerShadow_3418_154"/>
</filter>
<filter id="filter1_i_3418_154" x="213" y="163" width="88" height="130" filterUnits="userSpaceOnUse" color-interpolation-filters="sRGB">
<feFlood flood-opacity="0" result="BackgroundImageFix"/>
<feBlend mode="normal" in="SourceGraphic" in2="BackgroundImageFix" result="shape"/>
<feColorMatrix in="SourceAlpha" type="matrix" values="0 0 0 0 0 0 0 0 0 0 0 0 0 0 0 0 0 0 127 0" result="hardAlpha"/>
<feOffset dx="3" dy="5"/>
<feGaussianBlur stdDeviation="4.6"/>
<feComposite in2="hardAlpha" operator="arithmetic" k2="-1" k3="1"/>
<feColorMatrix type="matrix" values="0 0 0 0 0.248626 0 0 0 0 0.0474713 0 0 0 0 0.164812 0 0 0 0.36 0"/>
<feBlend mode="normal" in2="shape" result="effect1_innerShadow_3418_154"/>
</filter>
<linearGradient id="paint0_linear_3418_154" x1="140" y1="93.5" x2="312.5" y2="416" gradientUnits="userSpaceOnUse">
<stop stop-color="#C8F3FF"/>
<stop offset="0.489516" stop-color="#EFEFEF"/>
<stop offset="1" stop-color="#D7ADB4"/>
</linearGradient>
<linearGradient id="paint1_linear_3418_154" x1="89" y1="125.5" x2="131" y2="434" gradientUnits="userSpaceOnUse">
<stop stop-color="white"/>
<stop offset="0.671917" stop-color="#EFEFEF"/>
<stop offset="1" stop-color="#D7ADB4"/>
</linearGradient>
<linearGradient id="paint2_linear_3418_154" x1="121.283" y1="79" x2="418.968" y2="349.009" gradientUnits="userSpaceOnUse">
<stop stop-color="#DAB4BB"/>
<stop offset="1" stop-color="#CCF3FD"/>
</linearGradient>
</defs>
</svg>
