<svg width="512" height="512" viewBox="0 0 512 512" fill="none" xmlns="http://www.w3.org/2000/svg">
<path fill-rule="evenodd" clip-rule="evenodd" d="M410 197.235C410 193.567 410.001 189.898 409.979 186.23C409.961 183.139 409.925 180.05 409.841 176.961C409.659 170.228 409.262 163.438 408.065 156.781C406.851 150.028 404.868 143.742 401.743 137.606C398.671 131.575 394.658 126.056 389.87 121.272C385.083 116.487 379.563 112.477 373.53 109.407C367.387 106.281 361.095 104.299 354.334 103.085C347.676 101.889 340.884 101.493 334.152 101.311C331.061 101.228 327.97 101.192 324.878 101.173C321.207 101.151 317.537 101.153 313.866 101.153L271.249 101H239.374L197.51 101.153C193.833 101.153 190.155 101.151 186.478 101.173C183.379 101.192 180.283 101.228 177.186 101.311C170.437 101.493 163.63 101.89 156.956 103.087C150.187 104.3 143.885 106.282 137.734 109.405C131.688 112.476 126.156 116.486 121.359 121.272C116.563 126.056 112.542 131.574 109.465 137.604C106.331 143.743 104.345 150.032 103.127 156.789C101.929 163.444 101.532 170.231 101.349 176.961C101.266 180.05 101.23 183.14 101.211 186.23C101.189 189.899 101 194.456 101 198.125L101.001 239.408L101 271.624L101.19 313.785C101.19 317.459 101.189 321.132 101.211 324.806C101.23 327.9 101.266 330.994 101.349 334.087C101.532 340.828 101.93 347.628 103.129 354.294C104.346 361.057 106.332 367.351 109.463 373.495C112.541 379.535 116.562 385.061 121.359 389.852C126.156 394.643 131.686 398.659 137.731 401.734C143.886 404.863 150.19 406.848 156.964 408.063C163.635 409.261 170.44 409.658 177.186 409.84C180.283 409.923 183.38 409.959 186.478 409.978C190.156 410 193.833 409.999 197.51 409.999L239.752 410H271.706L313.866 409.998C317.537 409.998 321.207 410 324.878 409.978C327.97 409.959 331.061 409.923 334.152 409.84C340.887 409.658 347.681 409.26 354.342 408.062C361.099 406.847 367.388 404.863 373.527 401.735C379.561 398.66 385.083 394.644 389.87 389.852C394.657 385.061 398.67 379.536 401.742 373.498C404.869 367.351 406.851 361.053 408.066 354.286C409.263 347.623 409.659 340.826 409.841 334.087C409.925 330.993 409.961 327.9 409.979 324.806C410.002 321.132 410 317.459 410 313.785C410 313.785 409.998 272.369 409.998 271.624V239.374C409.998 238.825 410 197.235 410 197.235" fill="url(#paint0_linear_3418_154)"/>
<mask id="path-2-inside-1_3418_154" fill="white">
<path fill-rule="evenodd" clip-rule="evenodd" d="M381 178.86C381 175.892 381.001 172.924 380.983 169.956C380.968 167.456 380.939 164.956 380.871 162.457C380.725 157.01 380.403 151.517 379.434 146.13C378.452 140.666 376.848 135.581 374.32 130.617C371.834 125.737 368.587 121.272 364.714 117.401C360.841 113.53 356.375 110.285 351.493 107.802C346.524 105.273 341.433 103.669 335.963 102.687C330.576 101.72 325.081 101.399 319.634 101.252C317.133 101.184 314.632 101.156 312.131 101.14C309.161 101.122 306.192 101.123 303.222 101.123L268.742 101H242.953L209.083 101.123C206.107 101.123 203.132 101.122 200.157 101.14C197.65 101.156 195.145 101.184 192.639 101.252C187.179 101.399 181.672 101.72 176.272 102.688C170.795 103.67 165.697 105.273 160.72 107.8C155.829 110.285 151.353 113.529 147.472 117.401C143.591 121.272 140.339 125.736 137.849 130.615C135.313 135.581 133.706 140.67 132.721 146.137C131.752 151.521 131.43 157.013 131.282 162.457C131.215 164.956 131.186 167.456 131.171 169.956C131.153 172.924 131 176.612 131 179.58L131.001 212.981L131 239.046L131.154 273.156C131.154 276.128 131.153 279.1 131.171 282.072C131.186 284.576 131.215 287.079 131.283 289.582C131.43 295.036 131.752 300.537 132.723 305.931C133.707 311.402 135.314 316.494 137.847 321.465C140.338 326.352 143.591 330.823 147.472 334.699C151.352 338.576 155.827 341.824 160.718 344.312C165.697 346.844 170.798 348.45 176.278 349.433C181.676 350.402 187.181 350.723 192.639 350.87C195.145 350.938 197.65 350.967 200.157 350.982C203.132 351 206.107 350.999 209.083 350.999L243.259 351H269.112L303.222 350.999C306.192 350.999 309.161 351 312.131 350.982C314.632 350.967 317.133 350.938 319.634 350.87C325.083 350.723 330.58 350.401 335.969 349.432C341.436 348.449 346.524 346.843 351.491 344.313C356.373 341.826 360.841 338.576 364.714 334.699C368.587 330.823 371.833 326.353 374.319 321.467C376.848 316.494 378.453 311.399 379.436 305.924C380.404 300.533 380.724 295.034 380.872 289.582C380.939 287.079 380.968 284.576 380.983 282.072C381.002 279.1 381 276.128 381 273.156C381 273.156 380.998 239.648 380.998 239.046V212.953C380.998 212.509 381 178.86 381 178.86"/>
</mask>
<path fill-rule="evenodd" clip-rule="evenodd" d="M381 178.86C381 175.892 381.001 172.924 380.983 169.956C380.968 167.456 380.939 164.956 380.871 162.457C380.725 157.01 380.403 151.517 379.434 146.13C378.452 140.666 376.848 135.581 374.32 130.617C371.834 125.737 368.587 121.272 364.714 117.401C360.841 113.53 356.375 110.285 351.493 107.802C346.524 105.273 341.433 103.669 335.963 102.687C330.576 101.72 325.081 101.399 319.634 101.252C317.133 101.184 314.632 101.156 312.131 101.14C309.161 101.122 306.192 101.123 303.222 101.123L268.742 101H242.953L209.083 101.123C206.107 101.123 203.132 101.122 200.157 101.14C197.65 101.156 195.145 101.184 192.639 101.252C187.179 101.399 181.672 101.72 176.272 102.688C170.795 103.67 165.697 105.273 160.72 107.8C155.829 110.285 151.353 113.529 147.472 117.401C143.591 121.272 140.339 125.736 137.849 130.615C135.313 135.581 133.706 140.67 132.721 146.137C131.752 151.521 131.43 157.013 131.282 162.457C131.215 164.956 131.186 167.456 131.171 169.956C131.153 172.924 131 176.612 131 179.58L131.001 212.981L131 239.046L131.154 273.156C131.154 276.128 131.153 279.1 131.171 282.072C131.186 284.576 131.215 287.079 131.283 289.582C131.43 295.036 131.752 300.537 132.723 305.931C133.707 311.402 135.314 316.494 137.847 321.465C140.338 326.352 143.591 330.823 147.472 334.699C151.352 338.576 155.827 341.824 160.718 344.312C165.697 346.844 170.798 348.45 176.278 349.433C181.676 350.402 187.181 350.723 192.639 350.87C195.145 350.938 197.65 350.967 200.157 350.982C203.132 351 206.107 350.999 209.083 350.999L243.259 351H269.112L303.222 350.999C306.192 350.999 309.161 351 312.131 350.982C314.632 350.967 317.133 350.938 319.634 350.87C325.083 350.723 330.58 350.401 335.969 349.432C341.436 348.449 346.524 346.843 351.491 344.313C356.373 341.826 360.841 338.576 364.714 334.699C368.587 330.823 371.833 326.353 374.319 321.467C376.848 316.494 378.453 311.399 379.436 305.924C380.404 300.533 380.724 295.034 380.872 289.582C380.939 287.079 380.968 284.576 380.983 282.072C381.002 279.1 381 276.128 381 273.156C381 273.156 380.998 239.648 380.998 239.046V212.953C380.998 212.509 381 178.86 381 178.86" fill="url(#paint1_linear_3418_154)"/>
<path d="M380.983 169.956L367.983 170.033L367.983 170.036L380.983 169.956ZM380.871 162.457L367.876 162.807L367.876 162.81L380.871 162.457ZM379.434 146.13L366.64 148.431L366.64 148.432L379.434 146.13ZM374.32 130.617L385.904 124.717L385.903 124.716L374.32 130.617ZM364.714 117.401L355.523 126.596L355.525 126.597L364.714 117.401ZM351.493 107.802L357.389 96.2153L357.389 96.2153L351.493 107.802ZM335.963 102.687L333.666 115.482L333.666 115.482L335.963 102.687ZM319.634 101.252L319.283 114.247L319.283 114.247L319.634 101.252ZM312.131 101.14L312.211 88.1404L312.211 88.1404L312.131 101.14ZM303.222 101.123L303.175 114.123L303.199 114.123H303.222V101.123ZM268.742 101L268.788 88.0001L268.765 88H268.742V101ZM242.953 101V88H242.929L242.906 88.0001L242.953 101ZM209.083 101.123V114.123H209.107L209.13 114.123L209.083 101.123ZM200.157 101.14L200.077 88.1404L200.076 88.1404L200.157 101.14ZM192.639 101.252L192.989 114.247L192.99 114.247L192.639 101.252ZM176.272 102.688L178.566 115.484L178.567 115.484L176.272 102.688ZM160.72 107.8L154.834 96.2092L154.834 96.2094L160.72 107.8ZM147.472 117.401L156.653 126.605L156.653 126.605L147.472 117.401ZM137.849 130.615L149.427 136.525L149.428 136.524L137.849 130.615ZM132.721 146.137L119.927 143.832L119.927 143.832L132.721 146.137ZM131.282 162.457L118.287 162.104L118.287 162.107L131.282 162.457ZM131.171 169.956L144.171 170.036L144.171 170.035L131.171 169.956ZM131 179.58L118 179.58L118 179.58L131 179.58ZM131.001 212.981L144.001 212.981L144.001 212.98L131.001 212.981ZM131 239.046L118 239.045L118 239.075L118 239.104L131 239.046ZM131.154 273.156H144.154V273.127L144.154 273.098L131.154 273.156ZM131.171 282.072L118.171 282.151L118.171 282.151L131.171 282.072ZM131.283 289.582L118.288 289.933L118.288 289.933L131.283 289.582ZM132.723 305.931L145.517 303.628L145.517 303.628L132.723 305.931ZM137.847 321.465L126.265 327.368L126.265 327.368L137.847 321.465ZM160.718 344.312L154.824 355.899L154.825 355.9L160.718 344.312ZM176.278 349.433L178.575 336.638L178.574 336.638L176.278 349.433ZM192.639 350.87L192.99 337.875L192.989 337.875L192.639 350.87ZM200.157 350.982L200.236 337.982L200.236 337.982L200.157 350.982ZM209.083 350.999L209.083 337.999H209.083V350.999ZM243.259 351L243.259 364H243.259V351ZM269.112 351L269.112 364L269.112 364L269.112 351ZM303.222 350.999L303.222 337.999L303.222 337.999L303.222 350.999ZM312.131 350.982L312.052 337.982L312.051 337.982L312.131 350.982ZM319.634 350.87L319.986 363.866L319.986 363.866L319.634 350.87ZM335.969 349.432L338.271 362.227L338.271 362.227L335.969 349.432ZM351.491 344.313L345.59 332.729L345.589 332.73L351.491 344.313ZM364.714 334.699L355.518 325.51L355.517 325.511L364.714 334.699ZM374.319 321.467L385.905 327.362L385.906 327.361L374.319 321.467ZM379.436 305.924L392.231 308.222L392.231 308.221L379.436 305.924ZM380.872 289.582L367.876 289.231L367.876 289.231L380.872 289.582ZM380.983 282.072L367.983 281.992L367.983 281.995L380.983 282.072ZM381 273.156L394 273.156L394 273.156L381 273.156ZM381 178.86H394C394 175.904 394.001 172.893 393.983 169.876L380.983 169.956L367.983 170.036C368.001 172.956 368 175.88 368 178.86H381ZM380.983 169.956L393.983 169.879C393.968 167.335 393.938 164.733 393.867 162.104L380.871 162.457L367.876 162.81C367.941 165.179 367.969 167.576 367.983 170.033L380.983 169.956ZM380.871 162.457L393.867 162.107C393.714 156.444 393.372 150.182 392.229 143.829L379.434 146.13L366.64 148.432C367.435 152.851 367.735 157.576 367.876 162.807L380.871 162.457ZM379.434 146.13L392.229 143.83C391.051 137.276 389.08 130.954 385.904 124.717L374.32 130.617L362.735 136.516C364.615 140.208 365.853 144.057 366.64 148.431L379.434 146.13ZM374.32 130.617L385.903 124.716C382.797 118.617 378.741 113.041 373.903 108.205L364.714 117.401L355.525 126.597C358.434 129.504 360.871 132.857 362.736 136.517L374.32 130.617ZM364.714 117.401L373.904 108.207C369.067 103.372 363.49 99.3197 357.389 96.2153L351.493 107.802L345.597 119.388C349.259 121.251 352.614 123.688 355.523 126.596L364.714 117.401ZM351.493 107.802L357.389 96.2153C351.146 93.0386 344.818 91.069 338.26 89.8915L335.963 102.687L333.666 115.482C338.047 116.269 341.901 117.507 345.598 119.388L351.493 107.802ZM335.963 102.687L338.26 89.8915C331.909 88.751 325.646 88.4095 319.985 88.2566L319.634 101.252L319.283 114.247C324.516 114.388 329.244 114.688 333.666 115.482L335.963 102.687ZM319.634 101.252L319.986 88.2566C317.355 88.1854 314.752 88.1561 312.211 88.1404L312.131 101.14L312.051 114.14C314.512 114.155 316.912 114.183 319.283 114.247L319.634 101.252ZM312.131 101.14L312.211 88.1404C309.192 88.1219 306.178 88.1235 303.222 88.1235V101.123V114.123C306.205 114.123 309.13 114.122 312.051 114.14L312.131 101.14ZM303.222 101.123L303.269 88.1236L268.788 88.0001L268.742 101L268.695 114L303.175 114.123L303.222 101.123ZM268.742 101V88H242.953V101V114H268.742V101ZM242.953 101L242.906 88.0001L209.035 88.1236L209.083 101.123L209.13 114.123L243 114L242.953 101ZM209.083 101.123V88.1235C206.121 88.1235 203.101 88.1219 200.077 88.1404L200.157 101.14L200.236 114.14C203.163 114.122 206.094 114.123 209.083 114.123V101.123ZM200.157 101.14L200.076 88.1404C197.53 88.1561 194.923 88.1854 192.288 88.2566L192.639 101.252L192.99 114.247C195.366 114.183 197.77 114.155 200.237 114.14L200.157 101.14ZM192.639 101.252L192.289 88.2565C186.615 88.4094 180.341 88.7512 173.977 89.8926L176.272 102.688L178.567 115.484C183.002 114.689 187.743 114.388 192.989 114.247L192.639 101.252ZM176.272 102.688L173.978 89.8924C167.415 91.0688 161.082 93.0364 154.834 96.2092L160.72 107.8L166.606 119.391C170.311 117.51 174.174 116.272 178.566 115.484L176.272 102.688ZM160.72 107.8L154.834 96.2094C148.724 99.3122 143.137 103.363 138.29 108.198L147.472 117.401L156.653 126.605C159.569 123.696 162.933 121.257 166.607 119.391L160.72 107.8ZM147.472 117.401L138.291 108.197C133.446 113.03 129.383 118.605 126.269 124.705L137.849 130.615L149.428 136.524C151.295 132.867 153.737 129.513 156.653 126.605L147.472 117.401ZM137.849 130.615L126.27 124.705C123.083 130.947 121.108 137.275 119.927 143.832L132.721 146.137L145.515 148.441C146.304 144.065 147.543 140.216 149.427 136.525L137.849 130.615ZM132.721 146.137L119.927 143.832C118.783 150.184 118.441 156.446 118.287 162.104L131.282 162.457L144.278 162.81C144.42 157.579 144.72 152.857 145.515 148.441L132.721 146.137ZM131.282 162.457L118.287 162.107C118.216 164.734 118.186 167.334 118.171 169.877L131.171 169.956L144.171 170.035C144.185 167.578 144.214 165.179 144.278 162.807L131.282 162.457ZM131.171 169.956L118.171 169.876C118.163 171.215 118.124 172.74 118.082 174.452C118.043 176.095 118 177.913 118 179.58H131H144C144 178.278 144.034 176.769 144.075 175.084C144.114 173.469 144.161 171.666 144.171 170.036L131.171 169.956ZM131 179.58L118 179.58L118.001 212.981L131.001 212.981L144.001 212.98L144 179.579L131 179.58ZM131.001 212.981L118.001 212.98L118 239.045L131 239.046L144 239.046L144.001 212.981L131.001 212.981ZM131 239.046L118 239.104L118.154 273.215L131.154 273.156L144.154 273.098L144 238.987L131 239.046ZM131.154 273.156H118.154C118.154 276.116 118.153 279.131 118.171 282.151L131.171 282.072L144.171 281.994C144.153 279.069 144.154 276.14 144.154 273.156H131.154ZM131.171 282.072L118.171 282.151C118.186 284.698 118.216 287.302 118.288 289.933L131.283 289.582L144.278 289.231C144.214 286.856 144.185 284.454 144.171 281.994L131.171 282.072ZM131.283 289.582L118.288 289.933C118.441 295.602 118.784 301.873 119.928 308.233L132.723 305.931L145.517 303.628C144.721 299.202 144.42 294.47 144.278 289.231L131.283 289.582ZM132.723 305.931L119.928 308.233C121.109 314.793 123.083 321.123 126.265 327.368L137.847 321.465L149.43 315.563C147.546 311.865 146.306 308.01 145.517 303.628L132.723 305.931ZM137.847 321.465L126.265 327.368C129.377 333.475 133.44 339.057 138.284 343.897L147.472 334.699L156.659 325.502C153.742 322.588 151.298 319.228 149.43 315.562L137.847 321.465ZM147.472 334.699L138.284 343.897C143.129 348.736 148.715 352.792 154.824 355.899L160.718 344.312L166.612 332.725C162.939 330.857 159.576 328.415 156.659 325.502L147.472 334.699ZM160.718 344.312L154.825 355.9C161.077 359.079 167.415 361.05 173.983 362.229L176.278 349.433L178.574 336.638C174.181 335.849 170.317 334.609 166.611 332.724L160.718 344.312ZM176.278 349.433L173.982 362.229C180.344 363.371 186.617 363.713 192.288 363.866L192.639 350.87L192.989 337.875C187.746 337.734 183.008 337.433 178.575 336.638L176.278 349.433ZM192.639 350.87L192.288 363.866C194.923 363.937 197.53 363.966 200.078 363.982L200.157 350.982L200.236 337.982C197.771 337.967 195.366 337.939 192.99 337.875L192.639 350.87ZM200.157 350.982L200.077 363.982C203.101 364 206.119 363.999 209.083 363.999V350.999V337.999C206.095 337.999 203.164 338 200.236 337.982L200.157 350.982ZM209.083 350.999L209.083 363.999L243.259 364L243.259 351L243.26 338L209.083 337.999L209.083 350.999ZM243.259 351V364H269.112V351V338H243.259V351ZM269.112 351L269.112 364L303.223 363.999L303.222 350.999L303.222 337.999L269.111 338L269.112 351ZM303.222 350.999V363.999C306.178 363.999 309.192 364 312.211 363.982L312.131 350.982L312.051 337.982C309.13 338 306.205 337.999 303.222 337.999V350.999ZM312.131 350.982L312.21 363.982C314.753 363.966 317.356 363.937 319.986 363.866L319.634 350.87L319.283 337.875C316.911 337.939 314.512 337.967 312.052 337.982L312.131 350.982ZM319.634 350.87L319.986 363.866C325.649 363.712 331.915 363.37 338.271 362.227L335.969 349.432L333.668 336.637C329.245 337.433 324.517 337.734 319.283 337.875L319.634 350.87ZM335.969 349.432L338.271 362.227C344.826 361.048 351.152 359.076 357.393 355.896L351.491 344.313L345.589 332.73C341.896 334.611 338.045 335.85 333.668 336.637L335.969 349.432ZM351.491 344.313L357.392 355.896C363.495 352.787 369.074 348.729 373.911 343.887L364.714 334.699L355.517 325.511C352.607 328.424 349.252 330.864 345.59 332.729L351.491 344.313ZM364.714 334.699L373.909 343.888C378.746 339.048 382.8 333.466 385.905 327.362L374.319 321.467L362.732 315.573C360.866 319.24 358.428 322.598 355.518 325.51L364.714 334.699ZM374.319 321.467L385.906 327.361C389.083 321.115 391.053 314.783 392.231 308.222L379.436 305.924L366.64 303.627C365.852 308.015 364.614 311.873 362.731 315.573L374.319 321.467ZM379.436 305.924L392.231 308.221C393.372 301.865 393.714 295.598 393.867 289.933L380.872 289.582L367.876 289.231C367.735 294.469 367.435 299.201 366.64 303.627L379.436 305.924ZM380.872 289.582L393.867 289.933C393.938 287.301 393.968 284.696 393.983 282.15L380.983 282.072L367.983 281.995C367.969 284.455 367.941 286.857 367.876 289.231L380.872 289.582ZM380.983 282.072L393.983 282.153C394.002 279.132 394 276.115 394 273.156H381H368C368 276.142 368.001 279.069 367.983 281.992L380.983 282.072ZM381 273.156C394 273.156 394 273.155 394 273.155C394 273.155 394 273.155 394 273.154C394 273.153 394 273.151 394 273.149C394 273.145 394 273.139 394 273.131C394 273.115 394 273.091 394 273.059C394 272.996 394 272.902 394 272.779C394 272.534 394 272.173 394 271.715C394 270.797 394 269.486 394 267.91C394 264.76 393.999 260.552 393.999 256.326C393.999 247.873 393.998 239.346 393.998 239.046H380.998H367.998C367.998 239.347 367.999 247.876 367.999 256.327C367.999 260.554 368 264.761 368 267.912C368 269.487 368 270.799 368 271.716C368 272.175 368 272.535 368 272.78C368 272.903 368 272.997 368 273.061C368 273.093 368 273.117 368 273.133C368 273.141 368 273.147 368 273.151C368 273.153 368 273.154 368 273.155C368 273.156 368 273.156 368 273.157C368 273.157 368 273.157 381 273.156ZM380.998 239.046H393.998V212.953H380.998H367.998V239.046H380.998ZM380.998 212.953H393.998C393.998 212.732 393.999 204.209 393.999 195.741C393.999 191.507 394 187.287 394 184.125C394 182.545 394 181.229 394 180.308C394 179.847 394 179.485 394 179.239C394 179.116 394 179.021 394 178.957C394 178.926 394 178.901 394 178.885C394 178.877 394 178.871 394 178.867C394 178.865 394 178.864 394 178.862C394 178.862 394 178.862 394 178.861C394 178.861 394 178.861 381 178.86C368 178.859 368 178.86 368 178.86C368 178.86 368 178.86 368 178.861C368 178.862 368 178.864 368 178.866C368 178.87 368 178.876 368 178.884C368 178.9 368 178.924 368 178.956C368 179.02 368 179.114 368 179.237C368 179.484 368 179.846 368 180.306C368 181.227 368 182.543 368 184.124C368 187.285 367.999 191.505 367.999 195.739C367.999 204.207 367.998 212.731 367.998 212.953H380.998Z" fill="url(#paint2_linear_3418_154)" mask="url(#path-2-inside-1_3418_154)"/>
<path d="M265 283C253.637 283 243.92 280.773 235.85 276.32C227.779 271.866 221.619 265.344 217.372 256.755C213.124 248.166 211 237.774 211 225.58C211 216.46 212.381 208.348 215.142 201.243C218.009 194.033 221.938 187.988 226.929 183.111C231.92 178.127 237.761 174.362 244.451 171.817C251.142 169.272 258.363 168 266.115 168C272.274 168 277.637 168.53 282.204 169.591C286.77 170.651 290.487 171.817 293.354 173.09C296.327 174.362 298.398 175.423 299.566 176.271L293.195 193.927C290.009 192.124 286.186 190.586 281.726 189.314C277.265 187.935 272.168 187.246 266.434 187.246C260.381 187.246 254.858 188.625 249.867 191.382C244.982 194.033 241.053 198.168 238.08 203.788C235.106 209.408 233.619 216.566 233.619 225.261C233.619 232.684 234.735 239.312 236.965 245.144C239.301 250.87 242.912 255.43 247.796 258.823C252.788 262.11 259.159 263.754 266.912 263.754C274.239 263.754 280.08 263.065 284.434 261.686C288.788 260.308 292.292 258.929 294.947 257.55L301 275.206C297.92 277.009 293.248 278.758 286.982 280.455C280.823 282.152 273.496 283 265 283Z" fill="#373737"/>
<defs>
<linearGradient id="paint0_linear_3418_154" x1="140" y1="93.5" x2="312.5" y2="416" gradientUnits="userSpaceOnUse">
<stop stop-color="white"/>
<stop offset="0.489516" stop-color="#EFEFEF"/>
<stop offset="1" stop-color="#979797"/>
</linearGradient>
<linearGradient id="paint1_linear_3418_154" x1="45.7025" y1="101" x2="45.7025" y2="521.595" gradientUnits="userSpaceOnUse">
<stop stop-color="white"/>
<stop offset="0.489516" stop-color="#EFEFEF"/>
<stop offset="1" stop-color="#C0C0C0"/>
</linearGradient>
<linearGradient id="paint2_linear_3418_154" x1="121.283" y1="79" x2="418.968" y2="349.009" gradientUnits="userSpaceOnUse">
<stop stop-color="#DADADA"/>
<stop offset="1" stop-color="white"/>
</linearGradient>
</defs>
</svg>
